#N canvas 155 382 1196 894 10;
#X obj 210 520 output~;
#X obj 10 500 mtof;
#X floatatom 10 531 5 0 0 0 - - -;
#X floatatom 10 423 5 0 0 0 - - -;
#X obj 10 282 vsl 15 128 0 127 0 0 empty empty empty 0 -9 0 10 -262144
-1 -1 0 1;
#X floatatom 66 413 5 0 0 0 - - -;
#X obj 682 527 bng 15 250 50 0 empty empty empty 17 7 0 10 -262144
-1 -1;
#X floatatom 761 539 5 0 0 1 adjust_Phase - -;
#X obj 692 562 s reset;
#X obj 761 562 s adjust;
#X obj 9 552 s rawpitch;
#X floatatom 789 465 8 0 0 0 - - -;
#X obj 789 488 * 100;
#X msg 789 393 0 10000;
#X obj 66 346 loadbang;
#X text 900 474 phase;
#X text 785 366 automatic phase adjustment;
#X obj 51 453 mod 12;
#X obj 75 503 int;
#X floatatom 76 531 5 0 0 1 Pitch_Class - -;
#X obj 36 282 vsl 15 128 55 880 0 0 empty empty empty 0 -9 0 10 -262144
-1 -1 0 1;
#X obj 760 376 vsl 15 128 0 100 0 0 empty empty empty 0 -9 0 10 -262144
-1 -1 0 1;
#X obj 210 477 catch~ the_sound;
#X obj 107 382 s init;
#X obj 9 11 justPentatonic 1;
#X obj 9 78 justPentatonic 2;
#X obj 9 145 justPentatonic 3;
#X obj 9 212 justPentatonic 4;
#X obj 187 11 justPythagoras 1;
#X obj 187 78 justPythagoras 2;
#X obj 187 147 justPythagoras 3;
#X obj 187 212 justPythagoras 4;
#X obj 419 11 justChromaPyth 1;
#X obj 751 11 equalTempered 1;
#X obj 751 78 equalTempered 2;
#X obj 751 144 equalTempered 3;
#X obj 751 211 equalTempered 4;
#X obj 210 299 soundMulti 1;
#X obj 330 299 soundMulti 2;
#X obj 450 299 soundMulti 3;
#X obj 570 299 soundMulti 4;
#X msg 66 382 220;
#X msg 856 393 9 10000;
#X obj 789 439 line 0 0.1;
#X obj 419 78 justChromaPyth 2;
#X obj 419 144 justChromaPyth 3;
#X obj 419 211 justChromaPyth 4;
#X obj 388 515 pythagorean 1;
#X obj 236 663 soundMulti;
#X obj 391 587 pythagorean 2;
#X obj 390 678 pythagorean 3;
#X obj 390 740 pythagorean 4;
#X text 874 374;
#X connect 1 0 2 0;
#X connect 2 0 10 0;
#X connect 3 0 1 0;
#X connect 3 0 17 0;
#X connect 4 0 3 0;
#X connect 5 0 2 0;
#X connect 6 0 8 0;
#X connect 7 0 9 0;
#X connect 11 0 12 0;
#X connect 12 0 7 0;
#X connect 13 0 43 0;
#X connect 14 0 41 0;
#X connect 14 0 23 0;
#X connect 17 0 18 0;
#X connect 18 0 19 0;
#X connect 20 0 5 0;
#X connect 21 0 7 0;
#X connect 22 0 0 0;
#X connect 22 0 0 1;
#X connect 24 0 37 0;
#X connect 25 0 37 1;
#X connect 26 0 37 2;
#X connect 27 0 37 3;
#X connect 28 0 38 0;
#X connect 29 0 38 1;
#X connect 30 0 38 2;
#X connect 31 0 38 3;
#X connect 32 0 39 0;
#X connect 33 0 40 0;
#X connect 34 0 40 1;
#X connect 35 0 40 2;
#X connect 36 0 40 3;
#X connect 41 0 5 0;
#X connect 42 0 43 0;
#X connect 43 0 11 0;
#X connect 44 0 39 1;
#X connect 45 0 39 2;
#X connect 46 0 39 3;
#X connect 47 0 48 0;
#X connect 49 0 48 1;
#X connect 50 0 48 2;
