#N canvas 311 237 422 725 12;
#X floatatom 68 381 5 0 0 0 - - -;
#X obj 235 485 t b f;
#X obj 55 560 expr 1200 * (ln($f2/$f1)/ln(2));
#X floatatom 235 457 5 0 0 0 - - -;
#X floatatom 75 656 8 0 0 0 - - -;
#X obj 233 428 *;
#X floatatom 253 373 7 0 0 0 - - -;
#X floatatom 299 275 5 0 0 0 - - -;
#X floatatom 301 313 5 0 0 0 - - -;
#X obj 253 315 *;
#X obj 253 344 /;
#X msg 251 247 1;
#X obj 63 88 mtof;
#X floatatom 65 128 5 0 0 0 - - -;
#X obj 68 211 t f b;
#X msg 64 49 69;
#X connect 0 0 2 0;
#X connect 0 0 5 0;
#X connect 1 0 2 0;
#X connect 1 1 2 1;
#X connect 2 0 4 0;
#X connect 3 0 1 0;
#X connect 5 0 3 0;
#X connect 6 0 5 1;
#X connect 7 0 9 1;
#X connect 8 0 10 1;
#X connect 9 0 10 0;
#X connect 10 0 6 0;
#X connect 11 0 9 0;
#X connect 12 0 13 0;
#X connect 13 0 14 0;
#X connect 14 0 0 0;
#X connect 14 1 11 0;
#X connect 15 0 12 0;
