#N canvas 192 768 735 627 10;
#X floatatom 129 180 5 0 0 0 - - -;
#X obj 129 203 / 12;
#X obj 129 240 t b f;
#X obj 127 339 pow;
#X msg 128 293 2;
#X obj 127 445 * 440;
#X floatatom 192 330 5 0 0 0 - - -;
#X obj 192 293 r rawpitch;
#X floatatom 53 381 5 0 0 0 - - -;
#N canvas 335 267 450 300 diatonic 0;
#X obj 43 39 inlet;
#X obj 44 111 select 0 1 2 3 4 5 6 7 8;
#X obj 136 275 outlet;
#X msg 40 169 0;
#X msg 75 169 2;
#X msg 115 169 4;
#X msg 150 169 5;
#X msg 185 168 7;
#X msg 220 168 9;
#X msg 327 167 12;
#X floatatom 40 77 5 0 0 0 - - -;
#X msg 257 168 11;
#X msg 292 167 12;
#X connect 0 0 10 0;
#X connect 1 0 3 0;
#X connect 1 1 4 0;
#X connect 1 2 5 0;
#X connect 1 3 6 0;
#X connect 1 4 7 0;
#X connect 1 5 8 0;
#X connect 1 6 11 0;
#X connect 1 7 12 0;
#X connect 1 8 9 0;
#X connect 3 0 2 0;
#X connect 4 0 2 0;
#X connect 5 0 2 0;
#X connect 6 0 2 0;
#X connect 7 0 2 0;
#X connect 8 0 2 0;
#X connect 9 0 2 0;
#X connect 10 0 1 0;
#X connect 11 0 2 0;
#X connect 12 0 2 0;
#X restore 129 137 pd diatonic;
#X msg 81 408 0;
#X obj 123 589 outlet;
#X obj 21 21 cnv 15 218 60 empty empty Equal-Tempered-\$1 6 12 0 12
-233017 -66577 0;
#X obj 27 43 hradio 14 1 0 8 empty empty empty 0 -8 0 10 -262144 -86277
-1 0;
#X obj 27 63 hradio 14 1 0 13 empty empty empty 0 -8 0 11 -262144 -4032
-1 12;
#X obj 174 38 hradio 15 1 0 4 empty empty empty 65 6 0 11 -262130 -86277
-162280 0;
#X obj 137 509 *;
#X obj 260 460 octaver;
#X obj 306 146 r init;
#X obj 311 183 t b b;
#X obj 45 149 t b;
#X connect 0 0 1 0;
#X connect 1 0 2 0;
#X connect 2 0 4 0;
#X connect 2 1 3 1;
#X connect 3 0 5 0;
#X connect 3 0 8 0;
#X connect 4 0 3 0;
#X connect 5 0 16 0;
#X connect 6 0 5 1;
#X connect 7 0 6 0;
#X connect 9 0 14 0;
#X connect 10 0 5 0;
#X connect 13 0 9 0;
#X connect 14 0 0 0;
#X connect 15 0 17 0;
#X connect 15 0 20 0;
#X connect 16 0 11 0;
#X connect 17 0 16 1;
#X connect 18 0 19 0;
#X connect 19 0 13 0;
#X connect 19 1 15 0;
#X connect 20 0 0 0;
#X coords 0 -1 1 1 220 62 1 20 20;
