#N canvas 726 89 748 537 10;
#X floatatom 45 453 5 0 0 0 - - -;
#X obj 480 262 ratio 2 1 octave;
#X obj 45 262 ratio 3 2 fifth;
#X obj 480 202 ratio 4 3 fourth;
#X obj 190 202 ratio 9 8 4th_below_5th;
#X obj 190 262 ratio 27 16 5th_above_2nd;
#X obj 45 202 ratio 1 1 fundamental;
#X obj 335 202 ratio 81 64 4th_below_6th;
#X obj 45 148 select 0 1 2 3 4 5 6 7 8;
#X obj 335 262 ratio 243 128 5th_above_3rd;
#X obj 21 21 cnv 20 220 54 empty empty Diatonic(8_notes)-\$1 6 12 0
12 -233017 -66577 0;
#X obj 27 48 hradio 20 1 0 8 empty empty empty 0 -8 0 10 -262144 -258113
-258113 0;
#X obj 435 421 *;
#X obj 491 372 r rawpitch;
#X msg 434 374 0;
#X obj 435 451 *;
#X obj 435 484 outlet;
#X obj 173 26 hradio 15 1 0 4 empty empty empty 65 6 0 11 -262130 -86277
-162280 0;
#X obj 594 334 octaver;
#X floatatom 591 377 5 0 0 0 - - -;
#X obj 361 61 r init;
#X obj 361 107 t b b;
#X obj 458 64 bng 15 250 50 0 empty empty empty 17 7 0 10 -262144 -1
-1;
#X obj 545 134 t b;
#X connect 0 0 12 0;
#X connect 1 0 0 0;
#X connect 2 0 0 0;
#X connect 3 0 0 0;
#X connect 4 0 0 0;
#X connect 5 0 0 0;
#X connect 6 0 0 0;
#X connect 7 0 0 0;
#X connect 8 0 6 0;
#X connect 8 1 4 0;
#X connect 8 2 7 0;
#X connect 8 3 3 0;
#X connect 8 4 2 0;
#X connect 8 5 5 0;
#X connect 8 6 9 0;
#X connect 8 7 1 0;
#X connect 9 0 0 0;
#X connect 11 0 8 0;
#X connect 12 0 15 0;
#X connect 13 0 12 1;
#X connect 14 0 12 0;
#X connect 15 0 16 0;
#X connect 17 0 18 0;
#X connect 17 0 23 0;
#X connect 18 0 19 0;
#X connect 19 0 15 1;
#X connect 20 0 21 0;
#X connect 21 0 11 0;
#X connect 21 1 17 0;
#X connect 22 0 21 0;
#X connect 23 0 0 0;
#X coords 0 -1 1 1 222 56 2 20 20;
