#N canvas 42 67 935 685 10;
#X floatatom 45 513 10 0 0 0 - - -;
#X obj 45 387 ratio 2 1 octave;
#X obj 190 306 ratio 3 2 fifth;
#X obj 770 184 ratio 4 3 fourth;
#X obj 480 306 ratio 27 16 5th_above_2nd;
#X obj 770 306 ratio 243 128 5th_above_3rd;
#X obj 45 306 ratio 1024 729 dim_5th;
#X obj 335 184 ratio 9 8 4th_below_5th;
#X obj 45 184 ratio 1 1 fundamental;
#X obj 625 184 ratio 81 64 4th_below_6th;
#X obj 190 184 ratio 256 243 pc_1;
#X obj 480 184 ratio 32 27 pc_3;
#X obj 45 245 ratio 729 512 aug_4th;
#X obj 335 306 ratio 128 81 minor_6th;
#X obj 625 306 ratio 16 9 minor_7th;
#X obj 45 118 select 0 1 2 3 4 5 6 7 8 9 10 11 12 13;
#X obj 45 569 *;
#X obj 62 535 r rawpitch;
#X msg -23 532 0;
#X obj 52 610 *;
#X obj 232 495 octaver;
#X obj 48 648 outlet;
#X obj 21 21 cnv 15 320 55 empty empty Chromatic-(12_step)-\$1 6 12
0 12 -233017 -66577 0;
#X obj 28 50 hradio 20 1 0 14 empty empty empty 0 -8 0 10 -262144 -4160
-258113 4;
#X obj 275 27 hradio 15 1 0 4 empty empty empty 65 6 0 11 -262130 -86277
-162280 0;
#X obj 400 42 r init;
#X obj 400 88 t b b;
#X obj 497 45 bng 15 250 50 0 empty empty empty 17 7 0 10 -262144 -1
-1;
#X obj 304 508 t b;
#X obj 633 87 ratio 80 64;
#X connect 0 0 16 0;
#X connect 1 0 0 0;
#X connect 2 0 0 0;
#X connect 3 0 0 0;
#X connect 4 0 0 0;
#X connect 5 0 0 0;
#X connect 6 0 0 0;
#X connect 7 0 0 0;
#X connect 8 0 0 0;
#X connect 9 0 0 0;
#X connect 10 0 0 0;
#X connect 11 0 0 0;
#X connect 12 0 0 0;
#X connect 13 0 0 0;
#X connect 14 0 0 0;
#X connect 15 0 8 0;
#X connect 15 1 10 0;
#X connect 15 2 7 0;
#X connect 15 3 11 0;
#X connect 15 4 29 0;
#X connect 15 5 3 0;
#X connect 15 6 6 0;
#X connect 15 7 12 0;
#X connect 15 8 2 0;
#X connect 15 9 13 0;
#X connect 15 10 4 0;
#X connect 15 11 14 0;
#X connect 15 12 5 0;
#X connect 15 13 1 0;
#X connect 16 0 19 0;
#X connect 17 0 16 1;
#X connect 18 0 16 0;
#X connect 19 0 21 0;
#X connect 20 0 19 1;
#X connect 23 0 15 0;
#X connect 24 0 20 0;
#X connect 24 0 28 0;
#X connect 25 0 26 0;
#X connect 26 0 23 0;
#X connect 26 1 24 0;
#X connect 27 0 26 0;
#X connect 28 0 0 0;
#X connect 29 0 0 0;
#X coords 0 -1 1 1 322 57 1 20 20;
