#N canvas 0 22 525 406 10;
#X obj 118 40 inlet;
#X obj 147 134 select 0 1 2 3;
#X msg 145 215 1;
#X msg 194 219 2;
#X msg 237 221 4;
#X msg 281 209 8;
#X obj 153 280 outlet;
#X connect 0 0 1 0;
#X connect 1 0 2 0;
#X connect 1 1 3 0;
#X connect 1 2 4 0;
#X connect 1 3 5 0;
#X connect 2 0 6 0;
#X connect 3 0 6 0;
#X connect 4 0 6 0;
#X connect 5 0 6 0;
