#N canvas 224 334 1244 944 12;
#X obj 79 735 output~;
#X floatatom 435 517 5 0 0 0 - - -;
#X msg 435 472 440;
#X text 507 518 set base pitch;
#X obj 432 562 ftom;
#X floatatom 432 600 5 0 0 0 - - -;
#X msg 65 284 1;
#X obj 78 102 hradio 15 1 0 13 empty empty empty 0 -8 0 10 -262144
-1 -1 12;
#X obj 65 313 * 12;
#X obj 65 342 / 12;
#X floatatom 65 371 7 0 0 0 - - -;
#X floatatom 78 127 5 0 0 0 - - -;
#X msg 125 284 1;
#X floatatom 125 371 7 0 0 0 - - -;
#X text 102 284 m2;
#X msg 185 284 1;
#X floatatom 185 371 7 0 0 0 - - -;
#X msg 245 284 1;
#X floatatom 245 371 7 0 0 0 - - -;
#X msg 304 284 1;
#X msg 364 284 1;
#X msg 424 284 1;
#X msg 484 284 1;
#X msg 545 284 1;
#X msg 605 284 1;
#X msg 665 284 1;
#X msg 725 284 1;
#X msg 784 284 1;
#X text 165 283 M2;
#X text 222 284 m3;
#X text 284 283 M3;
#X text 341 284 P4;
#X text 404 283 TT;
#X text 461 284 P5;
#X text 525 283 m6;
#X text 582 284 M6;
#X text 645 283 m7;
#X text 702 284 M7;
#X text 764 283 P8;
#X text 41 283 P1;
#X obj 185 313 * 9;
#X obj 185 342 / 8;
#X obj 364 313 * 4;
#X obj 364 342 / 3;
#X obj 484 313 * 3;
#X obj 484 342 / 2;
#X floatatom 304 371 7 0 0 0 - - -;
#X floatatom 364 371 7 0 0 0 - - -;
#X floatatom 424 371 7 0 0 0 - - -;
#X floatatom 484 371 7 0 0 0 - - -;
#X floatatom 545 371 7 0 0 0 - - -;
#X floatatom 605 371 7 0 0 0 - - -;
#X floatatom 665 371 7 0 0 0 - - -;
#X floatatom 725 371 7 0 0 0 - - -;
#X floatatom 784 371 7 0 0 0 - - -;
#X floatatom 65 470 10 0 0 0 - - -;
#X obj 78 155 select 0 1 2 3 4 5 6 7 8 9 10 11 12;
#X obj 97 575 *;
#X obj 90 651 osc~;
#X floatatom 188 613 10 0 0 0 - - -;
#X text 72 57 Chromatic Scale in Pythagorean Intonation;
#X obj 125 313 * 256;
#X obj 125 342 / 243;
#X obj 245 313 * 32;
#X obj 245 342 / 27;
#X obj 304 313 * 81;
#X obj 304 342 / 64;
#X obj 424 313 * 729;
#X obj 424 342 / 512;
#X obj 545 313 * 128;
#X obj 545 342 / 81;
#X obj 605 313 * 27;
#X obj 605 342 / 16;
#X obj 665 313 * 16;
#X obj 665 342 / 9;
#X obj 725 313 * 243;
#X obj 725 342 / 128;
#X obj 784 313 * 2;
#X obj 784 342 / 1;
#X text 540 782 http://www.medieval.org/emfaq/harmony/pyth2.html;
#X connect 1 0 4 0;
#X connect 1 0 57 1;
#X connect 2 0 1 0;
#X connect 4 0 5 0;
#X connect 6 0 8 0;
#X connect 7 0 11 0;
#X connect 8 0 9 0;
#X connect 9 0 10 0;
#X connect 10 0 55 0;
#X connect 11 0 56 0;
#X connect 12 0 61 0;
#X connect 13 0 55 0;
#X connect 15 0 40 0;
#X connect 16 0 55 0;
#X connect 17 0 63 0;
#X connect 18 0 55 0;
#X connect 19 0 65 0;
#X connect 20 0 42 0;
#X connect 21 0 67 0;
#X connect 22 0 44 0;
#X connect 23 0 69 0;
#X connect 24 0 71 0;
#X connect 25 0 73 0;
#X connect 26 0 75 0;
#X connect 27 0 77 0;
#X connect 40 0 41 0;
#X connect 41 0 16 0;
#X connect 42 0 43 0;
#X connect 43 0 47 0;
#X connect 44 0 45 0;
#X connect 45 0 49 0;
#X connect 46 0 55 0;
#X connect 47 0 55 0;
#X connect 48 0 55 0;
#X connect 49 0 55 0;
#X connect 50 0 55 0;
#X connect 51 0 55 0;
#X connect 52 0 55 0;
#X connect 53 0 55 0;
#X connect 54 0 55 0;
#X connect 55 0 57 0;
#X connect 56 0 6 0;
#X connect 56 1 12 0;
#X connect 56 2 15 0;
#X connect 56 3 17 0;
#X connect 56 4 19 0;
#X connect 56 5 20 0;
#X connect 56 6 21 0;
#X connect 56 7 22 0;
#X connect 56 8 23 0;
#X connect 56 9 24 0;
#X connect 56 10 25 0;
#X connect 56 11 26 0;
#X connect 56 12 27 0;
#X connect 57 0 58 0;
#X connect 57 0 59 0;
#X connect 58 0 0 0;
#X connect 58 0 0 1;
#X connect 61 0 62 0;
#X connect 62 0 13 0;
#X connect 63 0 64 0;
#X connect 64 0 18 0;
#X connect 65 0 66 0;
#X connect 66 0 46 0;
#X connect 67 0 68 0;
#X connect 68 0 48 0;
#X connect 69 0 70 0;
#X connect 70 0 50 0;
#X connect 71 0 72 0;
#X connect 72 0 51 0;
#X connect 73 0 74 0;
#X connect 74 0 52 0;
#X connect 75 0 76 0;
#X connect 76 0 53 0;
#X connect 77 0 78 0;
#X connect 78 0 54 0;
