#N canvas 733 89 423 259 10;
#X obj 10 11 cnv 15 183 49 empty empty empty 20 12 0 14 -99865 -66577
0;
#X obj 20 33 hradio 17 1 0 8 empty empty pythagorean-voice-\$1 0 -8
0 11 -262144 -86277 -262130 0;
#X obj 262 118 r rawpitch;
#X floatatom 262 144 5 0 0 0 - - -;
#X obj 207 181 *;
#N canvas 186 56 726 564 pythagoras 1;
#X obj 22 25 inlet;
#X obj 22 388 outlet;
#X msg 22 177 1;
#X msg 498 177 1;
#X obj 498 203 * 12;
#X obj 498 229 / 6;
#X floatatom 498 255 8 0 0 0 - - -;
#X floatatom 22 255 8 0 0 0 - - -;
#X obj 22 203 * 12;
#X obj 22 229 / 12;
#X msg 294 177 1;
#X floatatom 294 255 8 0 0 0 - - -;
#X obj 294 203 * 3;
#X obj 294 229 / 2;
#X msg 227 177 1;
#X floatatom 226 255 8 0 0 0 - - -;
#X obj 227 203 * 4;
#X obj 227 229 / 3;
#X msg 90 177 1;
#X floatatom 90 255 8 0 0 0 - - -;
#X obj 90 203 * 9;
#X obj 90 229 / 8;
#X msg 158 177 1;
#X floatatom 158 255 8 0 0 0 - - -;
#X obj 158 203 * 81;
#X obj 159 229 / 64;
#X msg 361 177 1;
#X floatatom 362 255 8 0 0 0 - - -;
#X msg 430 177 1;
#X floatatom 430 255 8 0 0 0 - - -;
#X obj 362 203 * 27;
#X obj 362 229 / 16;
#X obj 430 203 * 243;
#X obj 430 229 / 128;
#X obj 22 71 select 0 1 2 3 4 5 6 7;
#X connect 0 0 34 0;
#X connect 2 0 8 0;
#X connect 3 0 4 0;
#X connect 4 0 5 0;
#X connect 5 0 6 0;
#X connect 6 0 1 0;
#X connect 7 0 1 0;
#X connect 8 0 9 0;
#X connect 9 0 7 0;
#X connect 10 0 12 0;
#X connect 11 0 1 0;
#X connect 12 0 13 0;
#X connect 13 0 11 0;
#X connect 14 0 16 0;
#X connect 15 0 1 0;
#X connect 16 0 17 0;
#X connect 17 0 15 0;
#X connect 18 0 20 0;
#X connect 19 0 1 0;
#X connect 20 0 21 0;
#X connect 21 0 19 0;
#X connect 22 0 24 0;
#X connect 23 0 1 0;
#X connect 24 0 25 0;
#X connect 25 0 23 0;
#X connect 26 0 30 0;
#X connect 27 0 1 0;
#X connect 28 0 32 0;
#X connect 29 0 1 0;
#X connect 30 0 31 0;
#X connect 31 0 27 0;
#X connect 32 0 33 0;
#X connect 33 0 29 0;
#X connect 34 0 2 0;
#X connect 34 1 18 0;
#X connect 34 2 22 0;
#X connect 34 3 14 0;
#X connect 34 4 10 0;
#X connect 34 5 26 0;
#X connect 34 6 28 0;
#X connect 34 7 3 0;
#X restore 208 92 pd pythagoras;
#X floatatom 207 145 5 0 0 0 - - -;
#X msg 166 145 0;
#X obj 207 217 outlet;
#X obj 166 33 bng 17 250 50 0 empty empty off -1 -8 0 11 -191407 -258113
-262130;
#X connect 1 0 5 0;
#X connect 2 0 3 0;
#X connect 3 0 4 1;
#X connect 4 0 8 0;
#X connect 5 0 6 0;
#X connect 6 0 4 0;
#X connect 7 0 4 0;
#X connect 9 0 7 0;
#X coords 0 -1 1 1 185 51 2 9 10;
