#N canvas 449 23 1430 1182 12;
#X obj 545 123 hradio 20 1 0 20 empty empty empty 0 -8 0 10 -262144
-1 -1 1;
#X floatatom 546 155 5 0 0 0 - - -;
#X obj 240 1017 output~;
#X floatatom 458 726 5 0 0 0 - - -;
#X msg 458 681 440;
#X text 530 727 set base pitch;
#X obj 455 771 ftom;
#X floatatom 455 809 5 0 0 0 - - -;
#X floatatom 275 724 10 0 0 0 - - -;
#X obj 266 794 *;
#X obj 251 933 osc~;
#X floatatom 360 925 10 0 0 0 - - -;
#X obj 549 194 select 0 1 2 3 4 5 6 7 8 9 10 11 12 13 14 15 16 17 18
19 20;
#X text 545 84 Quarter Comma Meantone;
#X obj 153 406 ratio 1 1 Unison;
#X obj 302 407 ratio 25 24 Chromatic_Semitone;
#X obj 457 408 ratio 16 15 Minor_Second;
#X floatatom 154 501 8 0 0 0 - - -;
#X floatatom 305 500 8 0 0 0 - - -;
#X floatatom 453 497 8 0 0 0 - - -;
#X floatatom 887 515 5 0 0 0 - - -;
#X obj 1064 634 t b f;
#X obj 884 709 expr 1200 * (ln($f2/$f1)/ln(2));
#X floatatom 1064 606 5 0 0 0 - - -;
#X floatatom 876 808 8 0 0 0 - - -;
#X obj 1062 577 *;
#X floatatom 1121 509 7 0 0 0 - - -;
#X floatatom 1181 414 5 0 0 0 - - -;
#X floatatom 1172 462 5 0 0 0 - - -;
#X obj 1121 451 *;
#X obj 1121 480 /;
#X msg 1121 414 1;
#X obj 1066 289 mtof;
#X floatatom 1068 329 5 0 0 0 - - -;
#X obj 1063 369 t f b;
#X msg 1067 250 69;
#X connect 0 0 1 0;
#X connect 1 0 12 0;
#X connect 3 0 6 0;
#X connect 3 0 9 1;
#X connect 4 0 3 0;
#X connect 6 0 7 0;
#X connect 8 0 9 0;
#X connect 9 0 10 0;
#X connect 9 0 11 0;
#X connect 10 0 2 0;
#X connect 10 0 2 1;
#X connect 12 0 14 0;
#X connect 12 1 15 0;
#X connect 12 2 16 0;
#X connect 14 0 17 0;
#X connect 15 0 18 0;
#X connect 16 0 19 0;
#X connect 17 0 8 0;
#X connect 18 0 8 0;
#X connect 19 0 8 0;
#X connect 20 0 22 0;
#X connect 20 0 25 0;
#X connect 21 0 22 0;
#X connect 21 1 22 1;
#X connect 22 0 24 0;
#X connect 23 0 21 0;
#X connect 25 0 23 0;
#X connect 26 0 25 1;
#X connect 27 0 29 1;
#X connect 28 0 30 1;
#X connect 29 0 30 0;
#X connect 30 0 26 0;
#X connect 31 0 29 0;
#X connect 32 0 33 0;
#X connect 33 0 34 0;
#X connect 34 0 20 0;
#X connect 34 1 31 0;
#X connect 35 0 32 0;
