#N canvas 186 55 404 414 10;
#X obj 23 19 inlet;
#X msg 22 256 1;
#X text 61 256 boolian: True;
#X obj 22 302 *;
#X obj 22 348 /;
#X obj 22 373 outlet;
#X obj 201 41 cnv 20 133 28 empty empty empty 20 12 0 14 -262130 -66577
0;
#X obj 206 46 nbx 4 18 -1e+37 1e+37 0 0 empty empty empty 0 -8 0 12
-262144 -1 -1 0 256;
#X obj 273 46 nbx 4 18 -1e+37 1e+37 0 0 empty empty empty 0 -8 0 12
-262144 -1 -1 0 256;
#X text 261 47 /;
#X obj 201 21 cnv 20 133 20 empty empty \$3 5 10 0 12 -33289 -4034
0;
#X obj 22 92 t b b b;
#X obj 45 150 float \$1;
#X obj 68 183 float \$2;
#X obj 79 19 loadbang;
#X text 98 375 Creation arguments are: Dividend Divisor Name;
#X connect 0 0 11 0;
#X connect 1 0 3 0;
#X connect 3 0 4 0;
#X connect 4 0 5 0;
#X connect 7 0 3 1;
#X connect 8 0 4 1;
#X connect 11 0 1 0;
#X connect 11 1 12 0;
#X connect 11 2 13 0;
#X connect 12 0 7 0;
#X connect 13 0 8 0;
#X connect 14 0 11 0;
#X coords 0 -1 1 1 135 50 2 200 20;
