#N canvas 553 197 1060 715 10;
#N canvas 1080 428 450 300 synth~ 0;
#X obj 30 92 phasor~;
#X obj 30 217 hip~ 5;
#X obj 30 191 cos~;
#X floatatom 104 94 5 0 0 0 - - -;
#X obj 58 146 *~;
#X obj 103 122 / 100;
#X msg 103 64 1;
#X obj 30 38 inlet;
#X obj 30 243 outlet~;
#X obj 103 38 inlet;
#X obj 170 37 inlet;
#X connect 0 0 4 0;
#X connect 0 0 2 0;
#X connect 1 0 8 0;
#X connect 2 0 1 0;
#X connect 3 0 5 0;
#X connect 4 0 2 0;
#X connect 5 0 4 1;
#X connect 6 0 3 0;
#X connect 7 0 0 0;
#X connect 9 0 6 0;
#X connect 10 0 3 0;
#X restore 63 213 pd synth~;
#N canvas 1080 428 450 300 synth~ 0;
#X obj 30 92 phasor~;
#X obj 30 217 hip~ 5;
#X obj 30 191 cos~;
#X floatatom 104 94 5 0 0 0 - - -;
#X obj 58 146 *~;
#X obj 103 122 / 100;
#X msg 103 64 1;
#X obj 30 38 inlet;
#X obj 30 243 outlet~;
#X obj 103 38 inlet;
#X obj 170 37 inlet;
#X connect 0 0 4 0;
#X connect 0 0 2 0;
#X connect 1 0 8 0;
#X connect 2 0 1 0;
#X connect 3 0 5 0;
#X connect 4 0 2 0;
#X connect 5 0 4 1;
#X connect 6 0 3 0;
#X connect 7 0 0 0;
#X connect 9 0 6 0;
#X connect 10 0 3 0;
#X restore 140 213 pd synth~;
#N canvas 1080 428 450 300 synth~ 0;
#X obj 30 92 phasor~;
#X obj 30 217 hip~ 5;
#X obj 30 191 cos~;
#X floatatom 104 94 5 0 0 0 - - -;
#X obj 58 146 *~;
#X obj 103 122 / 100;
#X msg 103 64 1;
#X obj 30 38 inlet;
#X obj 30 243 outlet~;
#X obj 103 38 inlet;
#X obj 170 37 inlet;
#X connect 0 0 4 0;
#X connect 0 0 2 0;
#X connect 1 0 8 0;
#X connect 2 0 1 0;
#X connect 3 0 5 0;
#X connect 4 0 2 0;
#X connect 5 0 4 1;
#X connect 6 0 3 0;
#X connect 7 0 0 0;
#X connect 9 0 6 0;
#X connect 10 0 3 0;
#X restore 217 213 pd synth~;
#N canvas 1080 428 450 300 synth~ 0;
#X obj 30 92 phasor~;
#X obj 30 217 hip~ 5;
#X obj 30 191 cos~;
#X floatatom 104 94 5 0 0 0 - - -;
#X obj 58 146 *~;
#X obj 103 122 / 100;
#X msg 103 64 1;
#X obj 30 38 inlet;
#X obj 30 243 outlet~;
#X obj 103 38 inlet;
#X obj 170 37 inlet;
#X connect 0 0 4 0;
#X connect 0 0 2 0;
#X connect 1 0 8 0;
#X connect 2 0 1 0;
#X connect 3 0 5 0;
#X connect 4 0 2 0;
#X connect 5 0 4 1;
#X connect 6 0 3 0;
#X connect 7 0 0 0;
#X connect 9 0 6 0;
#X connect 10 0 3 0;
#X restore 294 213 pd synth~;
#X obj 64 63 inlet;
#X obj 141 62 inlet;
#X obj 217 61 inlet;
#X obj 295 60 inlet;
#X obj 324 127 r reset;
#X obj 393 127 r adjust;
#X obj 181 645 throw~ the_sound;
#X obj 294 286 hip~ 3;
#X obj 294 588 *~;
#X obj 501 103 cnv 15 98 154 empty empty empty 20 12 0 14 -262130 -66577
0;
#X obj 505 107 vsl 15 128 0 1 0 0 empty empty empty 0 -9 0 10 -262144
-1 -1 0 1;
#X obj 529 107 vsl 15 128 0 1 0 0 empty empty empty 0 -9 0 10 -262144
-1 -1 0 1;
#X obj 554 107 vsl 15 128 0 1 0 0 empty empty empty 0 -9 0 10 -262144
-1 -1 0 1;
#X obj 579 107 vsl 15 128 0 1 0 0 empty empty empty 0 -9 0 10 -262144
-1 -1 0 1;
#X obj 642 483 line~;
#X obj 642 421 pack 0 100;
#X obj 210 286 hip~ 3;
#X obj 210 588 *~;
#X obj 125 287 hip~ 3;
#X obj 125 589 *~;
#X obj 38 287 hip~ 3;
#X obj 38 589 *~;
#X obj 505 239 tgl 15 0 empty empty empty 17 7 0 10 -262144 -1 -1 0
1;
#X obj 529 239 tgl 15 0 empty empty empty 17 7 0 10 -262144 -1 -1 0
1;
#X obj 554 239 tgl 15 0 empty empty empty 17 7 0 10 -262144 -1 -1 0
1;
#X obj 579 239 tgl 15 0 empty empty empty 17 7 0 10 -262144 -1 -1 0
1;
#X obj 694 274 select 0 1;
#X msg 694 304 0;
#X obj 673 451 unpack;
#X floatatom 728 342 5 0 0 0 - - -;
#X obj 695 382 pack 0 100;
#X obj 341 483 line~;
#X obj 341 421 pack 0 100;
#X obj 393 274 select 0 1;
#X msg 393 304 0;
#X obj 372 451 unpack;
#X floatatom 427 342 5 0 0 0 - - -;
#X obj 394 382 pack 0 100;
#X obj 435 483 line~;
#X obj 435 421 pack 0 100;
#X obj 487 274 select 0 1;
#X msg 487 304 0;
#X obj 466 451 unpack;
#X floatatom 521 342 5 0 0 0 - - -;
#X obj 488 382 pack 0 100;
#X obj 537 484 line~;
#X obj 537 422 pack 0 100;
#X obj 589 275 select 0 1;
#X msg 589 305 0;
#X obj 568 452 unpack;
#X floatatom 623 343 5 0 0 0 - - -;
#X obj 590 383 pack 0 100;
#X obj 657 47 r init;
#X obj 656 120 t b b b b;
#X connect 0 0 24 0;
#X connect 1 0 22 0;
#X connect 2 0 20 0;
#X connect 3 0 11 0;
#X connect 4 0 0 0;
#X connect 5 0 1 0;
#X connect 6 0 2 0;
#X connect 7 0 3 0;
#X connect 8 0 0 1;
#X connect 8 0 1 1;
#X connect 8 0 2 1;
#X connect 8 0 3 1;
#X connect 9 0 0 2;
#X connect 9 0 1 2;
#X connect 9 0 2 2;
#X connect 9 0 3 2;
#X connect 11 0 12 0;
#X connect 12 0 10 0;
#X connect 14 0 36 0;
#X connect 15 0 43 0;
#X connect 16 0 50 0;
#X connect 17 0 19 0;
#X connect 18 0 12 1;
#X connect 19 0 18 0;
#X connect 19 0 32 0;
#X connect 20 0 21 0;
#X connect 21 0 10 0;
#X connect 22 0 23 0;
#X connect 23 0 10 0;
#X connect 24 0 25 0;
#X connect 25 0 10 0;
#X connect 26 0 37 0;
#X connect 27 0 44 0;
#X connect 28 0 51 0;
#X connect 29 0 30 0;
#X connect 30 0 31 0;
#X connect 30 1 33 0;
#X connect 31 0 34 0;
#X connect 32 0 33 0;
#X connect 33 0 34 0;
#X connect 34 0 18 0;
#X connect 35 0 25 1;
#X connect 36 0 35 0;
#X connect 36 0 39 0;
#X connect 37 0 38 0;
#X connect 37 1 40 0;
#X connect 38 0 41 0;
#X connect 39 0 40 0;
#X connect 40 0 41 0;
#X connect 41 0 35 0;
#X connect 42 0 23 1;
#X connect 43 0 42 0;
#X connect 43 0 46 0;
#X connect 44 0 45 0;
#X connect 44 1 47 0;
#X connect 45 0 48 0;
#X connect 46 0 47 0;
#X connect 47 0 48 0;
#X connect 48 0 42 0;
#X connect 49 0 21 1;
#X connect 50 0 49 0;
#X connect 50 0 53 0;
#X connect 51 0 52 0;
#X connect 51 1 54 0;
#X connect 52 0 55 0;
#X connect 53 0 54 0;
#X connect 54 0 55 0;
#X connect 55 0 49 0;
#X connect 56 0 57 0;
#X connect 57 0 26 0;
#X connect 57 1 27 0;
#X connect 57 2 28 0;
#X connect 57 3 29 0;
#X coords 0 -1 1 1 100 158 1 500 100;
