#N canvas 258 471 594 292 10;
#N canvas 447 221 376 520 synth~ 0;
#X obj 30 92 phasor~;
#X obj 30 217 hip~ 5;
#X obj 30 191 cos~;
#X floatatom 104 94 5 0 0 0 - - -;
#X obj 58 146 *~;
#X obj 103 122 / 100;
#X msg 103 64 1;
#X obj 30 38 inlet;
#X obj 30 243 outlet~;
#X obj 103 38 inlet;
#X obj 170 37 inlet;
#X connect 0 0 4 0;
#X connect 0 0 2 0;
#X connect 1 0 8 0;
#X connect 2 0 1 0;
#X connect 3 0 5 0;
#X connect 4 0 2 0;
#X connect 5 0 4 1;
#X connect 6 0 3 0;
#X connect 7 0 0 0;
#X connect 9 0 6 0;
#X connect 10 0 3 0;
#X restore 13 128 pd synth~;
#X obj 43 76 r reset;
#X obj 73 102 r adjust;
#X obj 12 50 inlet;
#X obj 11 11 cnv 20 129 22 empty empty soundengine_\$1_\$2 8 11 1 12
-33289 -99865 0;
#X obj 101 246 throw~ the_sound_\$2;
#X connect 0 0 5 0;
#X connect 1 0 0 1;
#X connect 2 0 0 2;
#X connect 3 0 0 0;
#X coords 0 -1 1 1 130 24 1 10 10;
