#N canvas 929 337 509 382 12;
#X obj 68 273 noteout;
#X msg 68 115 60;
#X msg 152 115 60.5;
#X msg 103 115 60.25;
#X msg 271 115 100;
#X obj 68 224 makenote;
#X msg 360 115 150;
#X obj 152 223 mtof;
#X floatatom 152 272 8 0 0 0 - - -;
#X text 66 67 MIDI Pitches;
#X text 268 67 Velocity;
#X text 358 67 Duration;
#X msg 196 115 60.75;
#X connect 1 0 5 0;
#X connect 1 0 7 0;
#X connect 2 0 5 0;
#X connect 2 0 7 0;
#X connect 3 0 5 0;
#X connect 3 0 7 0;
#X connect 4 0 5 1;
#X connect 5 0 0 0;
#X connect 5 1 0 1;
#X connect 6 0 5 2;
#X connect 7 0 8 0;
#X connect 12 0 5 0;
#X connect 12 0 7 0;
