#N canvas 1012 203 1216 877 12;
#X obj 41 35 notein;
#X floatatom 41 131 5 0 0 0 - - -;
#X floatatom 83 131 5 0 0 0 - - -;
#X floatatom 125 131 5 0 0 0 - - -;
#X obj 41 178 - 1;
#X obj 43 828 dac~;
#X obj 41 81 poly 16 1;
#X obj 43 713 *~;
#X floatatom 139 679 5 0 1 0 - - -;
#X obj 43 741 hip~ 3;
#X obj 43 768 clip~ -1 1;
#X obj 43 796 *~ 1;
#X obj 41 211 pack 0 0 0;
#X obj 42 480 spigot;
#X obj 81 455 tgl 15 0 empty just empty 17 7 0 10 -262144 -1 -1 0 1
;
#X obj 42 539 throw~ out;
#X obj 43 677 catch~ out;
#X obj 41 328 s packs;
#X obj 42 427 r packs;
#X floatatom 427 200 5 0 0 0 - - -;
#X msg 380 63 422.5;
#X msg 441 90 409;
#X msg 472 137 455.4;
#X text 375 37 Handel 1740;
#X text 480 91 1780;
#X text 524 137 Beethoven;
#X msg 329 71 440;
#X msg 485 169 442;
#X obj 428 245 s base-freq;
#X obj 280 140 mtof;
#X msg 276 100 60;
#X obj 144 328 throw~ out;
#X obj 144 210 pack 0 0;
#X obj 144 265 spigot;
#X obj 183 238 tgl 15 0 empty empty empty 17 7 0 10 -262144 -1 -1 1
1;
#X msg 805 64 0;
#X msg 805 93 1;
#X msg 806 121 2;
#X msg 806 147 3;
#X text 673 64 Pythagorean;
#X text 674 90 Just;
#X text 674 146 Equal Temperament;
#X obj 903 68 loadbang;
#X floatatom 861 234 5 0 0 0 - - -;
#X floatatom 246 329 5 0 0 0 - - -;
#X obj 861 265 s harp-int;
#X obj 144 300 harp-voice-mono;
#X obj 42 510 clone harp-voice-poly-just 16;
#X obj 261 481 spigot;
#X obj 300 456 tgl 15 0 empty pyth empty 17 7 0 10 -262144 -1 -1 0
1;
#X obj 261 540 throw~ out;
#X obj 261 428 r packs;
#X obj 261 511 clone harp-voice-poly-pyth 16;
#X obj 481 481 spigot;
#X obj 520 457 tgl 15 0 empty nat empty 17 7 0 10 -262144 -1 -1 0 1
;
#X obj 481 540 throw~ out;
#X obj 481 428 r packs;
#X obj 481 511 clone harp-voice-poly-natural 16;
#X text 674 120 Natural;
#X obj 721 481 spigot;
#X obj 760 457 tgl 15 0 empty tet empty 17 7 0 10 -262144 -1 -1 0 1
;
#X obj 721 540 throw~ out;
#X obj 721 428 r packs;
#X obj 721 511 clone harp-voice-poly-tet 16;
#X obj 995 123 r harp-int;
#X obj 995 262 distribute;
#X text 674 178 ET Pierce-Bohlen;
#X msg 806 177 4;
#X obj 995 215 select 0 1 2 3 4;
#X obj 931 481 spigot;
#X obj 970 457 tgl 15 0 empty tetpb empty 17 7 0 10 -262144 -1 -1 0
1;
#X obj 931 540 throw~ out;
#X obj 931 428 r packs;
#X obj 931 511 clone harp-voice-poly-tetpb 16;
#X obj 139 611 loadbang;
#X msg 139 644 0.5;
#X obj 221 776 tgl 15 0 empty empty empty 17 7 0 10 -262144 -1 -1 1
1;
#X msg 221 811 \; pd dsp \$1;
#X text 217 735 Check MIDI (Pd -> Preferences -> MIDI);
#X obj 995 183 spigot;
#X obj 1034 157 tgl 15 0 empty empty empty 17 7 0 10 -262144 -1 -1
0 1;
#X text 1062 156 Polyphony;
#X connect 0 0 6 0;
#X connect 0 1 6 1;
#X connect 1 0 4 0;
#X connect 2 0 12 1;
#X connect 2 0 32 0;
#X connect 3 0 12 2;
#X connect 3 0 32 1;
#X connect 4 0 12 0;
#X connect 6 0 1 0;
#X connect 6 1 2 0;
#X connect 6 2 3 0;
#X connect 7 0 9 0;
#X connect 8 0 7 1;
#X connect 9 0 10 0;
#X connect 10 0 11 0;
#X connect 11 0 5 0;
#X connect 11 0 5 1;
#X connect 12 0 17 0;
#X connect 13 0 47 0;
#X connect 14 0 13 1;
#X connect 16 0 7 0;
#X connect 18 0 13 0;
#X connect 19 0 28 0;
#X connect 20 0 19 0;
#X connect 21 0 19 0;
#X connect 22 0 19 0;
#X connect 26 0 19 0;
#X connect 27 0 19 0;
#X connect 29 0 19 0;
#X connect 30 0 29 0;
#X connect 32 0 33 0;
#X connect 33 0 46 0;
#X connect 34 0 33 1;
#X connect 35 0 43 0;
#X connect 36 0 43 0;
#X connect 37 0 43 0;
#X connect 38 0 43 0;
#X connect 42 0 38 0;
#X connect 43 0 45 0;
#X connect 46 0 31 0;
#X connect 46 1 44 0;
#X connect 47 0 15 0;
#X connect 48 0 52 0;
#X connect 49 0 48 1;
#X connect 51 0 48 0;
#X connect 52 0 50 0;
#X connect 53 0 57 0;
#X connect 54 0 53 1;
#X connect 56 0 53 0;
#X connect 57 0 55 0;
#X connect 59 0 63 0;
#X connect 60 0 59 1;
#X connect 62 0 59 0;
#X connect 63 0 61 0;
#X connect 64 0 79 0;
#X connect 67 0 43 0;
#X connect 68 0 65 0;
#X connect 68 1 65 1;
#X connect 68 2 65 2;
#X connect 68 3 65 3;
#X connect 68 4 65 4;
#X connect 69 0 73 0;
#X connect 70 0 69 1;
#X connect 72 0 69 0;
#X connect 73 0 71 0;
#X connect 74 0 75 0;
#X connect 75 0 8 0;
#X connect 76 0 77 0;
#X connect 79 0 68 0;
#X connect 80 0 79 1;
