#N canvas 412 262 540 440 12;
#X obj 82 155 mtof;
#X floatatom 82 184 5 0 0 0 - - -;
#X floatatom 82 127 5 0 0 0 - - -;
#X obj 264 212 t b f;
#X obj 82 261 expr 1200 * (ln($f2/$f1)/ln(2));
#X floatatom 82 310 5 0 0 0 - - -;
#X obj 264 155 mtof;
#X floatatom 264 184 5 0 0 0 - - -;
#X floatatom 264 127 5 0 0 0 - - -;
#X text 174 130 MIDI;
#X text 140 185 frequency (Hz);
#X text 172 311 cents;
#X obj 82 38 loadbang;
#X msg 82 98 60;
#X msg 264 98 72;
#X connect 0 0 1 0;
#X connect 1 0 4 0;
#X connect 2 0 0 0;
#X connect 3 0 4 0;
#X connect 3 1 4 1;
#X connect 4 0 5 0;
#X connect 6 0 7 0;
#X connect 7 0 3 0;
#X connect 8 0 6 0;
#X connect 12 0 13 0;
#X connect 12 0 14 0;
#X connect 13 0 2 0;
#X connect 14 0 8 0;
