#N canvas 95 549 1733 686 12;
#X msg 130 258 1;
#X msg 166 258 0;
#X msg 201 258 0;
#X msg 238 258 0;
#X msg 378 259 1;
#X msg 345 259 0;
#X msg 414 259 0;
#X msg 451 259 0;
#X msg 634 259 1;
#X msg 561 259 0;
#X msg 600 259 0;
#X msg 667 259 0;
#X msg 894 259 1;
#X msg 785 259 0;
#X msg 820 259 0;
#X msg 857 259 0;
#X obj 160 101 inlet;
#X obj 372 104 inlet;
#X obj 582 116 inlet;
#X obj 816 134 inlet;
#X obj 418 583 send just;
#X obj 515 579 send pyth;
#X obj 633 579 send nat;
#X obj 759 578 send tet;
#X msg 1163 261 1;
#X msg 1015 259 0;
#X msg 1050 259 0;
#X msg 1087 259 0;
#X obj 1046 134 inlet;
#X obj 864 579 send tetpb;
#X msg 275 259 0;
#X msg 488 259 0;
#X msg 699 258 0;
#X msg 930 260 0;
#X msg 1125 260 0;
#X connect 0 0 20 0;
#X connect 1 0 21 0;
#X connect 2 0 22 0;
#X connect 3 0 23 0;
#X connect 4 0 21 0;
#X connect 5 0 20 0;
#X connect 6 0 22 0;
#X connect 7 0 23 0;
#X connect 8 0 22 0;
#X connect 9 0 20 0;
#X connect 10 0 21 0;
#X connect 11 0 23 0;
#X connect 12 0 23 0;
#X connect 13 0 20 0;
#X connect 14 0 21 0;
#X connect 15 0 22 0;
#X connect 16 0 0 0;
#X connect 16 0 1 0;
#X connect 16 0 2 0;
#X connect 16 0 3 0;
#X connect 16 0 30 0;
#X connect 17 0 5 0;
#X connect 17 0 4 0;
#X connect 17 0 6 0;
#X connect 17 0 7 0;
#X connect 17 0 31 0;
#X connect 18 0 9 0;
#X connect 18 0 10 0;
#X connect 18 0 8 0;
#X connect 18 0 11 0;
#X connect 18 0 32 0;
#X connect 19 0 13 0;
#X connect 19 0 14 0;
#X connect 19 0 15 0;
#X connect 19 0 12 0;
#X connect 19 0 33 0;
#X connect 24 0 29 0;
#X connect 25 0 20 0;
#X connect 26 0 21 0;
#X connect 27 0 22 0;
#X connect 28 0 25 0;
#X connect 28 0 26 0;
#X connect 28 0 27 0;
#X connect 28 0 24 0;
#X connect 28 0 34 0;
#X connect 30 0 29 0;
#X connect 31 0 29 0;
#X connect 32 0 29 0;
#X connect 33 0 29 0;
#X connect 34 0 23 0;
