#N canvas 1250 163 1277 895 12;
#X floatatom 313 286 5 0 0 0 - - -;
#X obj 313 315 / 12;
#X obj 313 346 t b f;
#X obj 313 462 pow;
#X obj 142 61 inlet;
#X obj 142 88 translator;
#X obj 313 196 hradio 15 1 0 13 empty empty empty 0 -8 0 10 -262144
-1 -1 0;
#X obj 142 115 unpack 0 0;
#X obj 142 516 *;
#X floatatom 142 551 5 0 0 0 - - -;
#X obj 142 595 outlet;
#X msg 313 399 3;
#X text 311 164 Chromatic Scale in Equal Temperament - Pierce-Bohlen
;
#X obj 142 217 octaver-three-pb;
#X connect 0 0 1 0;
#X connect 1 0 2 0;
#X connect 2 0 11 0;
#X connect 2 1 3 1;
#X connect 3 0 8 1;
#X connect 4 0 5 0;
#X connect 5 0 7 0;
#X connect 6 0 0 0;
#X connect 7 0 13 0;
#X connect 7 1 6 0;
#X connect 8 0 9 0;
#X connect 9 0 10 0;
#X connect 11 0 3 0;
#X connect 13 0 8 0;
