#N canvas 43 249 1916 1045 12;
#X obj 802 46 inlet;
#X obj 326 33 inlet;
#X obj 668 863 outlet;
#X msg 467 588 pyth \$1;
#X floatatom 370 505 5 0 0 0 - - -;
#X floatatom 537 489 5 0 0 0 - - -;
#X floatatom 662 481 5 0 0 0 - - -;
#X msg 551 587 just \$1;
#X obj 385 547 spigot;
#X obj 391 324 tgl 15 0 empty empty empty 17 7 0 10 -262144 -1 -1 0
1;
#X obj 560 542 spigot;
#X obj 704 335 tgl 15 0 empty empty empty 17 7 0 10 -262144 -1 -1 0
1;
#X obj 743 560 spigot;
#X obj 1079 356 tgl 15 0 empty empty empty 17 7 0 10 -262144 -1 -1
0 1;
#X obj 486 375 select 1;
#X msg 538 408 0;
#X floatatom 328 89 5 0 0 0 - - -;
#X obj 777 373 select 1;
#X msg 829 406 0;
#X obj 1106 410 select 1;
#X msg 1110 484 0;
#X obj 803 87 hradio 15 1 0 5 empty empty empty 0 -8 0 10 -262144 -1
-1 4;
#X obj 1288 356 tgl 15 0 empty empty empty 17 7 0 10 -262144 -1 -1
0 1;
#X obj 1315 410 select 1;
#X msg 1333 476 0;
#X msg 748 245 1;
#X msg 807 250 1;
#X msg 866 243 1;
#X msg 915 240 1;
#X obj 1143 630 spigot;
#X floatatom 1138 597 5 0 0 0 - - -;
#X msg 747 608 tet \$1;
#X obj 1065 107 loadbang;
#X msg 1085 161 1;
#X msg 640 593 nat \$1;
#X obj 803 164 select 0 1 2 3 4;
#X msg 1530 231 1;
#X obj 1527 266 tgl 15 0 empty empty empty 17 7 0 10 -262144 -1 -1
1 1;
#X obj 1594 360 select 1;
#X msg 1598 434 0;
#X obj 1481 604 spigot;
#X msg 905 696 tetpb \$1;
#X connect 0 0 21 0;
#X connect 1 0 16 0;
#X connect 3 0 2 0;
#X connect 4 0 8 0;
#X connect 5 0 10 0;
#X connect 6 0 12 0;
#X connect 7 0 2 0;
#X connect 8 0 3 0;
#X connect 9 0 8 1;
#X connect 9 0 14 0;
#X connect 10 0 7 0;
#X connect 11 0 10 1;
#X connect 11 0 17 0;
#X connect 12 0 34 0;
#X connect 13 0 12 1;
#X connect 13 0 19 0;
#X connect 14 0 15 0;
#X connect 15 0 11 0;
#X connect 15 0 13 0;
#X connect 15 0 22 0;
#X connect 15 0 37 0;
#X connect 16 0 4 0;
#X connect 16 0 5 0;
#X connect 16 0 6 0;
#X connect 16 0 30 0;
#X connect 16 0 40 0;
#X connect 17 0 18 0;
#X connect 18 0 9 0;
#X connect 18 0 13 0;
#X connect 18 0 22 0;
#X connect 18 0 37 0;
#X connect 19 0 20 0;
#X connect 20 0 11 0;
#X connect 20 0 9 0;
#X connect 20 0 22 0;
#X connect 20 0 37 0;
#X connect 21 0 35 0;
#X connect 22 0 23 0;
#X connect 22 0 29 1;
#X connect 23 0 24 0;
#X connect 24 0 13 0;
#X connect 24 0 11 0;
#X connect 24 0 9 0;
#X connect 24 0 37 0;
#X connect 25 0 9 0;
#X connect 26 0 11 0;
#X connect 27 0 13 0;
#X connect 28 0 22 0;
#X connect 29 0 31 0;
#X connect 30 0 29 0;
#X connect 31 0 2 0;
#X connect 32 0 33 0;
#X connect 33 0 21 0;
#X connect 34 0 2 0;
#X connect 35 0 25 0;
#X connect 35 1 26 0;
#X connect 35 2 27 0;
#X connect 35 3 28 0;
#X connect 35 4 36 0;
#X connect 36 0 37 0;
#X connect 37 0 38 0;
#X connect 37 0 40 1;
#X connect 38 0 39 0;
#X connect 39 0 22 0;
#X connect 39 0 13 0;
#X connect 39 0 11 0;
#X connect 39 0 9 0;
#X connect 40 0 41 0;
#X connect 41 0 2 0;
