#N canvas 422 560 242 404 12;
#X obj 29 68 unpack 0 0;
#X obj 30 26 inlet;
#X obj 29 228 harp~;
#X obj 30 278 /~ 2;
#X obj 30 326 outlet~;
#X obj 28 178 equalTET;
#X connect 0 0 5 0;
#X connect 0 1 2 1;
#X connect 1 0 0 0;
#X connect 2 0 3 0;
#X connect 3 0 4 0;
#X connect 5 0 2 0;
