#N canvas 630 325 1607 1084 12;
#X floatatom 249 543 5 0 0 0 - - -;
#X floatatom 305 543 5 0 0 0 - - -;
#X floatatom 354 544 5 0 0 0 - - -;
#X floatatom 403 545 5 0 0 0 - - -;
#X floatatom 247 412 5 0 0 0 - - -;
#X obj 247 448 four-toggler;
#X obj 251 346 inlet;
#X obj 244 625 outlet;
#X obj 302 625 outlet;
#X obj 355 626 outlet;
#X obj 417 630 outlet;
#X obj 408 344 r harp-int;
#X obj 251 486 route pyth just nat tet tetpb;
#X floatatom 455 546 5 0 0 0 - - -;
#X obj 469 631 outlet;
#X connect 0 0 7 0;
#X connect 1 0 8 0;
#X connect 2 0 9 0;
#X connect 3 0 10 0;
#X connect 4 0 5 0;
#X connect 5 0 12 0;
#X connect 6 0 4 0;
#X connect 11 0 5 1;
#X connect 12 0 0 0;
#X connect 12 1 1 0;
#X connect 12 2 2 0;
#X connect 12 3 3 0;
#X connect 12 4 13 0;
#X connect 13 0 14 0;
