#N canvas 521 239 1627 857 12;
#X text 210 119 Chromatic Scale in Just Intonation;
#X msg 222 354 1;
#X obj 222 172 hradio 15 1 0 13 empty empty empty 0 -8 0 10 -262144
-1 -1 0;
#X obj 222 383 * 12;
#X obj 222 412 / 12;
#X floatatom 222 441 7 0 0 0 - - -;
#X floatatom 222 197 5 0 0 0 - - -;
#X msg 282 354 1;
#X floatatom 282 441 7 0 0 0 - - -;
#X text 259 354 m2;
#X msg 342 354 1;
#X floatatom 342 441 7 0 0 0 - - -;
#X msg 402 354 1;
#X floatatom 402 441 7 0 0 0 - - -;
#X msg 461 354 1;
#X msg 521 354 1;
#X msg 581 354 1;
#X msg 641 354 1;
#X msg 702 354 1;
#X msg 762 354 1;
#X msg 822 354 1;
#X msg 882 354 1;
#X msg 941 354 1;
#X obj 941 383 * 12;
#X text 322 353 M2;
#X text 379 354 m3;
#X text 441 353 M3;
#X text 498 354 P4;
#X text 561 353 TT;
#X text 618 354 P5;
#X text 682 353 m6;
#X text 739 354 M6;
#X text 802 353 m7;
#X text 859 354 M7;
#X text 921 353 P8;
#X text 195 353 P1;
#X obj 282 383 * 25;
#X obj 282 412 / 24;
#X obj 342 383 * 9;
#X obj 342 412 / 8;
#X obj 402 383 * 6;
#X obj 402 412 / 5;
#X obj 461 383 * 5;
#X obj 461 412 / 4;
#X obj 521 383 * 4;
#X obj 521 412 / 3;
#X obj 581 383 * 45;
#X obj 581 412 / 32;
#X obj 641 383 * 3;
#X obj 641 412 / 2;
#X obj 702 383 * 8;
#X obj 702 412 / 5;
#X obj 762 383 * 5;
#X obj 762 412 / 3;
#X obj 822 383 * 9;
#X obj 822 412 / 5;
#X obj 882 383 * 15;
#X obj 882 412 / 8;
#X floatatom 461 441 7 0 0 0 - - -;
#X floatatom 521 441 7 0 0 0 - - -;
#X floatatom 581 441 7 0 0 0 - - -;
#X floatatom 641 441 7 0 0 0 - - -;
#X floatatom 702 441 7 0 0 0 - - -;
#X floatatom 762 441 7 0 0 0 - - -;
#X floatatom 822 441 7 0 0 0 - - -;
#X floatatom 882 441 7 0 0 0 - - -;
#X floatatom 941 441 7 0 0 0 - - -;
#X floatatom 222 540 10 0 0 0 - - -;
#X obj 941 412 / 6;
#X obj 222 225 select 0 1 2 3 4 5 6 7 8 9 10 11 12;
#X obj 34 652 *;
#X floatatom 34 679 10 0 0 0 - - -;
#X obj 34 60 translator;
#X obj 34 93 unpack 0 0;
#X obj 34 717 outlet;
#X obj 34 23 inlet;
#X obj 34 212 octaver-three;
#X connect 1 0 3 0;
#X connect 2 0 6 0;
#X connect 3 0 4 0;
#X connect 4 0 5 0;
#X connect 5 0 67 0;
#X connect 6 0 69 0;
#X connect 7 0 36 0;
#X connect 8 0 67 0;
#X connect 10 0 38 0;
#X connect 11 0 67 0;
#X connect 12 0 40 0;
#X connect 13 0 67 0;
#X connect 14 0 42 0;
#X connect 15 0 44 0;
#X connect 16 0 46 0;
#X connect 17 0 48 0;
#X connect 18 0 50 0;
#X connect 19 0 52 0;
#X connect 20 0 54 0;
#X connect 21 0 56 0;
#X connect 22 0 23 0;
#X connect 23 0 68 0;
#X connect 36 0 37 0;
#X connect 37 0 8 0;
#X connect 38 0 39 0;
#X connect 39 0 11 0;
#X connect 40 0 41 0;
#X connect 41 0 13 0;
#X connect 42 0 43 0;
#X connect 43 0 58 0;
#X connect 44 0 45 0;
#X connect 45 0 59 0;
#X connect 46 0 47 0;
#X connect 47 0 60 0;
#X connect 48 0 49 0;
#X connect 49 0 61 0;
#X connect 50 0 51 0;
#X connect 51 0 62 0;
#X connect 52 0 53 0;
#X connect 53 0 63 0;
#X connect 54 0 55 0;
#X connect 55 0 64 0;
#X connect 56 0 57 0;
#X connect 57 0 65 0;
#X connect 58 0 67 0;
#X connect 59 0 67 0;
#X connect 60 0 67 0;
#X connect 61 0 67 0;
#X connect 62 0 67 0;
#X connect 63 0 67 0;
#X connect 64 0 67 0;
#X connect 65 0 67 0;
#X connect 66 0 67 0;
#X connect 67 0 70 1;
#X connect 68 0 66 0;
#X connect 69 0 1 0;
#X connect 69 1 7 0;
#X connect 69 2 10 0;
#X connect 69 3 12 0;
#X connect 69 4 14 0;
#X connect 69 5 15 0;
#X connect 69 6 16 0;
#X connect 69 7 17 0;
#X connect 69 8 18 0;
#X connect 69 9 19 0;
#X connect 69 10 20 0;
#X connect 69 11 21 0;
#X connect 69 12 22 0;
#X connect 70 0 71 0;
#X connect 71 0 74 0;
#X connect 72 0 73 0;
#X connect 73 0 76 0;
#X connect 73 1 2 0;
#X connect 75 0 72 0;
#X connect 76 0 70 0;
