#N canvas 1114 136 1216 888 12;
#X obj 38 27 inlet;
#X floatatom 38 64 5 0 0 0 - - - 0;
#X obj 116 106 ftom;
#X floatatom 116 130 8 0 0 0 - - - 0;
#X msg 166 64 460;
#X obj 116 158 i;
#X obj 64 183 -;
#X obj 64 212 >= 0.5;
#X obj 98 241 +;
#X msg 116 64 444;
#X floatatom 627 453 5 0 0 0 - - - 0;
#X obj 627 424 i;
#X floatatom 98 298 5 0 0 0 - - - 0;
#X obj 627 481 - 1;
#X floatatom 627 508 5 0 0 0 - - - 0;
#X obj 98 326 mod 12;
#X floatatom 98 355 5 0 0 0 - - - 0;
#X obj 98 517 select 0 1 2 3 4 5 6 7 8 9 10 11;
#X msg 150 242 60;
#X msg 189 242 62;
#X floatatom 627 396 5 0 0 0 - - - 0;
#X msg 627 338 24;
#X obj 627 367 / 12;
#X msg 98 601 C;
#X msg 190 601 C#;
#X msg 280 602 D;
#X msg 371 602 D#;
#X msg 462 602 E;
#X msg 553 602 F;
#X msg 644 602 F#;
#X msg 736 602 G;
#X msg 826 602 G#;
#X msg 916 602 A;
#X msg 1008 602 A#;
#X msg 1099 602 B;
#N canvas 603 295 278 260 assemble 0;
#X obj 70 70 inlet;
#X obj 70 157 outlet;
#X obj 123 70 inlet;
#X msg 70 128 set \$1\$2;
#X obj 70 99 pack s f;
#X connect 0 0 4 0;
#X connect 2 0 4 1;
#X connect 3 0 1 0;
#X connect 4 0 3 0;
#X restore 98 631 pd assemble;
#N canvas 603 295 278 260 assemble 0;
#X obj 70 70 inlet;
#X obj 70 157 outlet;
#X obj 123 70 inlet;
#X msg 70 128 set \$1\$2;
#X obj 70 99 pack s f;
#X connect 0 0 4 0;
#X connect 2 0 4 1;
#X connect 3 0 1 0;
#X connect 4 0 3 0;
#X restore 190 631 pd assemble;
#N canvas 603 295 278 260 assemble 0;
#X obj 70 70 inlet;
#X obj 70 157 outlet;
#X obj 123 70 inlet;
#X msg 70 128 set \$1\$2;
#X obj 70 99 pack s f;
#X connect 0 0 4 0;
#X connect 2 0 4 1;
#X connect 3 0 1 0;
#X connect 4 0 3 0;
#X restore 280 631 pd assemble;
#N canvas 603 295 278 260 assemble 0;
#X obj 70 70 inlet;
#X obj 70 157 outlet;
#X obj 123 70 inlet;
#X msg 70 128 set \$1\$2;
#X obj 70 99 pack s f;
#X connect 0 0 4 0;
#X connect 2 0 4 1;
#X connect 3 0 1 0;
#X connect 4 0 3 0;
#X restore 371 631 pd assemble;
#N canvas 603 295 278 260 assemble 0;
#X obj 70 70 inlet;
#X obj 70 157 outlet;
#X obj 123 70 inlet;
#X msg 70 128 set \$1\$2;
#X obj 70 99 pack s f;
#X connect 0 0 4 0;
#X connect 2 0 4 1;
#X connect 3 0 1 0;
#X connect 4 0 3 0;
#X restore 462 631 pd assemble;
#N canvas 603 295 278 260 assemble 0;
#X obj 70 70 inlet;
#X obj 70 157 outlet;
#X obj 123 70 inlet;
#X msg 70 128 set \$1\$2;
#X obj 70 99 pack s f;
#X connect 0 0 4 0;
#X connect 2 0 4 1;
#X connect 3 0 1 0;
#X connect 4 0 3 0;
#X restore 553 631 pd assemble;
#N canvas 603 295 278 260 assemble 0;
#X obj 70 70 inlet;
#X obj 70 157 outlet;
#X obj 123 70 inlet;
#X msg 70 128 set \$1\$2;
#X obj 70 99 pack s f;
#X connect 0 0 4 0;
#X connect 2 0 4 1;
#X connect 3 0 1 0;
#X connect 4 0 3 0;
#X restore 644 631 pd assemble;
#N canvas 603 295 278 260 assemble 0;
#X obj 70 70 inlet;
#X obj 70 157 outlet;
#X obj 123 70 inlet;
#X msg 70 128 set \$1\$2;
#X obj 70 99 pack s f;
#X connect 0 0 4 0;
#X connect 2 0 4 1;
#X connect 3 0 1 0;
#X connect 4 0 3 0;
#X restore 736 631 pd assemble;
#N canvas 603 295 278 260 assemble 0;
#X obj 70 70 inlet;
#X obj 70 157 outlet;
#X obj 123 70 inlet;
#X msg 70 128 set \$1\$2;
#X obj 70 99 pack s f;
#X connect 0 0 4 0;
#X connect 2 0 4 1;
#X connect 3 0 1 0;
#X connect 4 0 3 0;
#X restore 826 631 pd assemble;
#N canvas 603 295 278 260 assemble 0;
#X obj 70 70 inlet;
#X obj 70 157 outlet;
#X obj 123 70 inlet;
#X msg 70 128 set \$1\$2;
#X obj 70 99 pack s f;
#X connect 0 0 4 0;
#X connect 2 0 4 1;
#X connect 3 0 1 0;
#X connect 4 0 3 0;
#X restore 916 631 pd assemble;
#N canvas 603 295 278 260 assemble 0;
#X obj 70 70 inlet;
#X obj 70 157 outlet;
#X obj 123 70 inlet;
#X msg 70 128 set \$1\$2;
#X obj 70 99 pack s f;
#X connect 0 0 4 0;
#X connect 2 0 4 1;
#X connect 3 0 1 0;
#X connect 4 0 3 0;
#X restore 1008 631 pd assemble;
#N canvas 603 295 278 260 assemble 0;
#X obj 70 70 inlet;
#X obj 70 157 outlet;
#X obj 123 70 inlet;
#X msg 70 128 set \$1\$2;
#X obj 70 99 pack s f;
#X connect 0 0 4 0;
#X connect 2 0 4 1;
#X connect 3 0 1 0;
#X connect 4 0 3 0;
#X restore 1099 631 pd assemble;
#X obj 597 845 outlet;
#X obj 596 801 cnv 20 39 20 empty empty empty 20 12 0 12 #ffffff #ffc7c6 0;
#X listbox 597 802 5 0 0 0 - - - 0;
#X connect 0 0 1 0;
#X connect 1 0 3 0;
#X connect 2 0 3 0;
#X connect 3 0 5 0;
#X connect 3 0 6 0;
#X connect 4 0 2 0;
#X connect 5 0 8 1;
#X connect 5 0 6 1;
#X connect 6 0 7 0;
#X connect 7 0 8 0;
#X connect 8 0 12 0;
#X connect 9 0 2 0;
#X connect 10 0 13 0;
#X connect 11 0 10 0;
#X connect 12 0 15 0;
#X connect 12 0 22 0;
#X connect 13 0 14 0;
#X connect 14 0 35 1;
#X connect 14 0 46 1;
#X connect 14 0 45 1;
#X connect 14 0 44 1;
#X connect 14 0 43 1;
#X connect 14 0 42 1;
#X connect 14 0 41 1;
#X connect 14 0 40 1;
#X connect 14 0 39 1;
#X connect 14 0 38 1;
#X connect 14 0 37 1;
#X connect 14 0 36 1;
#X connect 15 0 16 0;
#X connect 16 0 17 0;
#X connect 17 0 23 0;
#X connect 17 1 24 0;
#X connect 17 2 25 0;
#X connect 17 3 26 0;
#X connect 17 4 27 0;
#X connect 17 5 28 0;
#X connect 17 6 29 0;
#X connect 17 7 30 0;
#X connect 17 8 31 0;
#X connect 17 9 32 0;
#X connect 17 10 33 0;
#X connect 17 11 34 0;
#X connect 18 0 12 0;
#X connect 19 0 12 0;
#X connect 20 0 11 0;
#X connect 21 0 22 0;
#X connect 22 0 20 0;
#X connect 23 0 35 0;
#X connect 24 0 36 0;
#X connect 25 0 37 0;
#X connect 26 0 38 0;
#X connect 27 0 39 0;
#X connect 28 0 40 0;
#X connect 29 0 41 0;
#X connect 30 0 42 0;
#X connect 31 0 43 0;
#X connect 32 0 44 0;
#X connect 33 0 45 0;
#X connect 34 0 46 0;
#X connect 35 0 49 0;
#X connect 36 0 49 0;
#X connect 37 0 49 0;
#X connect 38 0 49 0;
#X connect 39 0 49 0;
#X connect 40 0 49 0;
#X connect 41 0 49 0;
#X connect 42 0 49 0;
#X connect 43 0 49 0;
#X connect 44 0 49 0;
#X connect 45 0 49 0;
#X connect 46 0 49 0;
#X connect 49 0 47 0;
#X coords 0 -1 1 1 41 22 2 595 800;
