#N canvas 1033 711 448 574 12;
#X obj 83 64 inlet;
#X text 71 28 pitch;
#X text 234 34 off vel;
#X text 161 29 on vel;
#N canvas 947 1010 634 382 oscillators 0;
#X obj 45 19 inlet;
#X obj 49 323 outlet~;
#X obj 56 165 phasor~;
#X obj 56 212 expr~ $v1 * 2 + 1;
#X floatatom 47 89 5 0 0 0 - - -;
#X obj 207 169 phasor~;
#X obj 207 216 expr~ $v1 * 2 + 1;
#X obj 191 135 *~ 1.001;
#X obj 46 56 mtof;
#X obj 222 63 r detune;
#X connect 0 0 8 0;
#X connect 2 0 3 0;
#X connect 3 0 1 0;
#X connect 4 0 2 0;
#X connect 4 0 7 0;
#X connect 5 0 6 0;
#X connect 6 0 1 0;
#X connect 7 0 5 0;
#X connect 8 0 4 0;
#X connect 9 0 7 1;
#X restore 90 248 pd oscillators;
#N canvas 297 950 849 407 filters 0;
#X obj 89 326 bob~;
#X msg 87 192 300;
#X msg 160 190 1.5;
#X obj 90 115 loadbang;
#X obj 8 50 inlet~;
#X obj 71 380 outlet~;
#X obj 245 18 receive cutoff;
#X floatatom 247 71 5 0 0 0 - - -;
#X obj 246 130 / 127;
#X obj 238 174 pow 4;
#X obj 237 210 * 10000;
#X obj 238 245 + 20;
#X connect 0 0 5 0;
#X connect 1 0 0 1;
#X connect 2 0 0 2;
#X connect 3 0 1 0;
#X connect 3 0 2 0;
#X connect 4 0 0 0;
#X connect 6 0 7 0;
#X connect 7 0 8 0;
#X connect 8 0 9 0;
#X connect 9 0 10 0;
#X connect 10 0 11 0;
#X connect 11 0 0 1;
#X restore 87 306 pd filters;
#N canvas 437 429 906 775 amplifiers 1;
#X obj 132 475 *~;
#X obj 246 422 vline~;
#X obj 193 138 / 127;
#X msg 189 337 \$1 5 \, \$2 200 5;
#X obj 353 265 * 0.5;
#X obj 223 265 pack;
#X obj 422 171 sel 0;
#X obj 213 94 inlet;
#X obj 391 94 inlet;
#X text 213 63 on;
#X text 391 63 off;
#X obj 54 64 inlet~;
#X obj 132 541 outlet~;
#X obj 545 64 receive release-rate;
#X floatatom 545 97 5 0 0 0 - - -;
#X obj 545 129 * 20;
#X msg 450 256 0 \$1;
#X floatatom 545 162 5 0 0 0 - - -;
#X obj 543 227 f;
#X obj 450 227 bng 15 250 50 0 empty empty empty 17 7 0 10 -262144
-1 -1;
#X obj 619 138 loadbang;
#X msg 615 192 700;
#X connect 0 0 12 0;
#X connect 1 0 0 1;
#X connect 2 0 4 0;
#X connect 2 0 5 0;
#X connect 3 0 1 0;
#X connect 4 0 5 1;
#X connect 5 0 3 0;
#X connect 6 0 19 0;
#X connect 7 0 2 0;
#X connect 8 0 6 0;
#X connect 11 0 0 0;
#X connect 13 0 14 0;
#X connect 14 0 15 0;
#X connect 15 0 17 0;
#X connect 16 0 1 0;
#X connect 17 0 18 1;
#X connect 18 0 16 0;
#X connect 19 0 18 0;
#X connect 20 0 21 0;
#X connect 21 0 18 1;
#X restore 85 392 pd amplifiers;
#X obj 91 456 outlet~;
#X obj 86 111 unpack 0 0;
#X obj 78 172 stripnote;
#X connect 0 0 8 0;
#X connect 4 0 5 0;
#X connect 5 0 6 0;
#X connect 6 0 7 0;
#X connect 8 0 9 0;
#X connect 8 1 9 1;
#X connect 8 1 6 2;
#X connect 9 0 4 0;
#X connect 9 1 6 1;
