#N canvas 1075 236 997 768 12;
#X floatatom 182 196 5 0 0 0 - - -;
#X obj 190 154 mtof;
#X obj 186 50 notein;
#X obj 202 116 stripnote;
#X floatatom 263 168 5 0 0 0 - - -;
#X floatatom 327 120 5 0 0 0 - - -;
#X obj 406 70 ctlin;
#X obj 640 94 ctlin;
#X obj 427 175 send cutoff;
#X floatatom 436 116 5 0 0 0 - - -;
#X floatatom 595 132 5 0 0 0 - - -;
#X obj 577 187 send release-rate;
#X obj 246 429 *~;
#X floatatom 389 354 5 0 1 0 - - -;
#X obj 229 494 dac~;
#X obj 208 321 monovoice;
#X obj 507 10 loadbang;
#X msg 497 62 80;
#X msg 576 63 40;
#X connect 0 0 15 0;
#X connect 1 0 0 0;
#X connect 2 0 3 0;
#X connect 2 1 3 1;
#X connect 2 1 5 0;
#X connect 3 0 1 0;
#X connect 3 1 4 0;
#X connect 4 0 15 1;
#X connect 5 0 15 2;
#X connect 6 0 9 0;
#X connect 7 0 10 0;
#X connect 9 0 8 0;
#X connect 10 0 11 0;
#X connect 12 0 14 0;
#X connect 12 0 14 1;
#X connect 13 0 12 1;
#X connect 15 0 12 0;
#X connect 16 0 17 0;
#X connect 16 0 18 0;
#X connect 17 0 9 0;
#X connect 18 0 10 0;
