#N canvas 1164 245 1319 934 12;
#X msg 195 334 1;
#X obj 208 152 hradio 15 1 0 13 empty empty empty 0 -8 0 10 -262144
-1 -1 0;
#X obj 195 363 * 12;
#X obj 195 392 / 12;
#X floatatom 195 421 7 0 0 0 - - -;
#X floatatom 208 177 5 0 0 0 - - -;
#X msg 255 334 1;
#X floatatom 255 421 7 0 0 0 - - -;
#X text 232 334 m2;
#X msg 315 334 1;
#X floatatom 315 421 7 0 0 0 - - -;
#X msg 375 334 1;
#X floatatom 375 421 7 0 0 0 - - -;
#X msg 434 334 1;
#X msg 494 334 1;
#X msg 554 334 1;
#X msg 614 334 1;
#X msg 675 334 1;
#X msg 735 334 1;
#X msg 795 334 1;
#X msg 855 334 1;
#X msg 914 334 1;
#X text 295 333 M2;
#X text 352 334 m3;
#X text 414 333 M3;
#X text 471 334 P4;
#X text 534 333 TT;
#X text 591 334 P5;
#X text 655 333 m6;
#X text 712 334 M6;
#X text 775 333 m7;
#X text 832 334 M7;
#X text 894 333 P8;
#X text 171 333 P1;
#X obj 315 363 * 9;
#X obj 315 392 / 8;
#X obj 375 363 * 6;
#X obj 375 392 / 5;
#X obj 434 363 * 5;
#X obj 434 392 / 4;
#X obj 494 363 * 4;
#X obj 494 392 / 3;
#X obj 614 363 * 3;
#X obj 614 392 / 2;
#X obj 675 363 * 8;
#X obj 675 392 / 5;
#X obj 735 363 * 5;
#X obj 735 392 / 3;
#X obj 855 363 * 15;
#X obj 855 392 / 8;
#X floatatom 434 421 7 0 0 0 - - -;
#X floatatom 494 421 7 0 0 0 - - -;
#X floatatom 554 421 7 0 0 0 - - -;
#X floatatom 614 421 7 0 0 0 - - -;
#X floatatom 675 421 7 0 0 0 - - -;
#X floatatom 735 421 7 0 0 0 - - -;
#X floatatom 795 421 7 0 0 0 - - -;
#X floatatom 855 421 7 0 0 0 - - -;
#X floatatom 914 421 7 0 0 0 - - -;
#X floatatom 195 520 10 0 0 0 - - -;
#X obj 208 205 select 0 1 2 3 4 5 6 7 8 9 10 11 12;
#X obj 35 581 *;
#X text 511 769 Gareth Loy \, Musimathics \, Vol. 1 \, p. 54-56;
#X obj 255 363 * 16;
#X obj 255 392 / 15;
#X obj 554 363 * 64;
#X obj 554 392 / 45;
#X obj 795 363 * 16;
#X obj 795 392 / 9;
#X obj 914 363 * 2;
#X obj 914 392 / 1;
#X text 202 107 Natural Chromaic Scale;
#X floatatom 35 623 10 0 0 0 - - -;
#X obj 35 661 outlet;
#X obj 34 60 translator;
#X obj 34 93 unpack 0 0;
#X obj 34 23 inlet;
#X obj 34 212 octaver-three;
#X connect 0 0 2 0;
#X connect 1 0 5 0;
#X connect 2 0 3 0;
#X connect 3 0 4 0;
#X connect 4 0 59 0;
#X connect 5 0 60 0;
#X connect 6 0 63 0;
#X connect 7 0 59 0;
#X connect 9 0 34 0;
#X connect 10 0 59 0;
#X connect 11 0 36 0;
#X connect 12 0 59 0;
#X connect 13 0 38 0;
#X connect 14 0 40 0;
#X connect 15 0 65 0;
#X connect 16 0 42 0;
#X connect 17 0 44 0;
#X connect 18 0 46 0;
#X connect 19 0 67 0;
#X connect 20 0 48 0;
#X connect 21 0 69 0;
#X connect 34 0 35 0;
#X connect 35 0 10 0;
#X connect 36 0 37 0;
#X connect 37 0 12 0;
#X connect 38 0 39 0;
#X connect 39 0 50 0;
#X connect 40 0 41 0;
#X connect 41 0 51 0;
#X connect 42 0 43 0;
#X connect 43 0 53 0;
#X connect 44 0 45 0;
#X connect 45 0 54 0;
#X connect 46 0 47 0;
#X connect 47 0 55 0;
#X connect 48 0 49 0;
#X connect 49 0 57 0;
#X connect 50 0 59 0;
#X connect 51 0 59 0;
#X connect 52 0 59 0;
#X connect 53 0 59 0;
#X connect 54 0 59 0;
#X connect 55 0 59 0;
#X connect 56 0 59 0;
#X connect 57 0 59 0;
#X connect 58 0 59 0;
#X connect 59 0 61 1;
#X connect 60 0 0 0;
#X connect 60 1 6 0;
#X connect 60 2 9 0;
#X connect 60 3 11 0;
#X connect 60 4 13 0;
#X connect 60 5 14 0;
#X connect 60 6 15 0;
#X connect 60 7 16 0;
#X connect 60 8 17 0;
#X connect 60 9 18 0;
#X connect 60 10 19 0;
#X connect 60 11 20 0;
#X connect 60 12 21 0;
#X connect 61 0 72 0;
#X connect 63 0 64 0;
#X connect 64 0 7 0;
#X connect 65 0 66 0;
#X connect 66 0 52 0;
#X connect 67 0 68 0;
#X connect 68 0 56 0;
#X connect 69 0 70 0;
#X connect 70 0 58 0;
#X connect 72 0 73 0;
#X connect 74 0 75 0;
#X connect 75 0 77 0;
#X connect 75 1 1 0;
#X connect 76 0 74 0;
#X connect 77 0 61 0;
