#N canvas 85 23 553 1271 12;
#X obj 144 137 inlet;
#X obj 119 723 outlet;
#X floatatom 321 417 5 0 0 0 - - -;
#X obj 326 378 mtof;
#X msg 325 342 60;
#X obj 144 203 select 4 5 6;
#X floatatom 119 689 5 0 0 0 - - -;
#X obj 119 617 * 1;
#X msg 242 558 2;
#X msg 146 557 0.5;
#X msg 189 559 1;
#X obj 178 322 t b b;
#X obj 271 357 t b b;
#X obj 72 307 t b b;
#X obj 57 574 f;
#X obj 325 313 loadbang;
#X obj 384 379 r base-freq;
#X obj 337 453 loadbang;
#X connect 0 0 5 0;
#X connect 2 0 14 1;
#X connect 3 0 2 0;
#X connect 4 0 3 0;
#X connect 5 0 13 0;
#X connect 5 1 11 0;
#X connect 5 2 12 0;
#X connect 6 0 1 0;
#X connect 7 0 6 0;
#X connect 8 0 7 1;
#X connect 9 0 7 1;
#X connect 10 0 7 1;
#X connect 11 0 14 0;
#X connect 11 1 10 0;
#X connect 12 0 14 0;
#X connect 12 1 8 0;
#X connect 13 0 14 0;
#X connect 13 1 9 0;
#X connect 14 0 7 0;
#X connect 15 0 4 0;
#X connect 16 0 2 0;
#X connect 17 0 10 0;
