#N canvas 883 113 983 773 12;
#X msg 240 234 220;
#X floatatom 240 321 5 0 0 0 - - - 0;
#X floatatom 240 122 5 0 0 0 - - - 0;
#X obj 240 150 select 32;
#X obj 240 93 key;
#X obj 240 561 output~;
#X obj 240 398 t f b, f 6;
#X obj 240 476 rds~;
#X msg 279 440 100;
#X msg 60 234 220;
#X msg 150 234 220;
#X obj 150 263 * 1;
#X floatatom 150 321 5 0 0 0 - - - 0;
#X obj 150 398 t f b, f 6;
#X obj 150 476 rds~;
#X msg 189 440 100;
#X msg 343 234 220;
#X floatatom 343 321 5 0 0 0 - - - 0;
#X obj 343 398 t f b, f 6;
#X obj 343 476 rds~;
#X msg 382 440 100;
#X obj 343 263 * 2;
#X obj 343 292 / 1;
#X obj 150 292 / 1;
#X obj 240 263 * 3;
#X obj 240 292 / 2;
#X connect 0 0 24 0;
#X connect 1 0 6 0;
#X connect 2 0 3 0;
#X connect 3 0 10 0;
#X connect 3 0 0 0;
#X connect 3 0 16 0;
#X connect 4 0 2 0;
#X connect 6 0 7 0;
#X connect 6 1 8 0;
#X connect 7 0 5 0;
#X connect 7 0 5 1;
#X connect 8 0 7 1;
#X connect 10 0 11 0;
#X connect 11 0 23 0;
#X connect 12 0 13 0;
#X connect 13 0 14 0;
#X connect 13 1 15 0;
#X connect 14 0 5 1;
#X connect 14 0 5 0;
#X connect 15 0 14 1;
#X connect 16 0 21 0;
#X connect 17 0 18 0;
#X connect 18 0 19 0;
#X connect 18 1 20 0;
#X connect 19 0 5 0;
#X connect 19 0 5 1;
#X connect 20 0 19 1;
#X connect 21 0 22 0;
#X connect 22 0 17 0;
#X connect 23 0 12 0;
#X connect 24 0 25 0;
#X connect 25 0 1 0;
