#N canvas 441 139 1273 873 12;
#X msg 618 105 440;
#X obj 675 203 * 3;
#X obj 675 232 / 2;
#X floatatom 675 318 5 0 0 0 - - - 0;
#X floatatom 618 318 5 0 0 0 - - - 0;
#X obj 618 376 ftom;
#X obj 675 376 ftom;
#X floatatom 618 405 5 0 0 0 - - - 0;
#X floatatom 675 405 5 0 0 0 - - - 0;
#X obj 732 203 * 3;
#X obj 732 232 / 2;
#X floatatom 732 318 5 0 0 0 - - - 0;
#X obj 732 376 ftom;
#X floatatom 732 405 5 0 0 0 - - - 0;
#X obj 789 203 * 3;
#X obj 789 232 / 2;
#X floatatom 789 318 5 0 0 0 - - - 0;
#X obj 789 376 ftom;
#X floatatom 789 405 5 0 0 0 - - - 0;
#X obj 846 203 * 3;
#X obj 846 232 / 2;
#X floatatom 846 318 5 0 0 0 - - - 0;
#X obj 846 376 ftom;
#X floatatom 846 405 5 0 0 0 - - - 0;
#X obj 903 203 * 3;
#X obj 903 232 / 2;
#X floatatom 903 318 5 0 0 0 - - - 0;
#X obj 903 376 ftom;
#X floatatom 903 405 5 0 0 0 - - - 0;
#X obj 960 203 * 3;
#X obj 960 232 / 2;
#X floatatom 960 318 5 0 0 0 - - - 0;
#X obj 960 376 ftom;
#X floatatom 960 405 5 0 0 0 - - - 0;
#X floatatom 276 318 5 0 0 0 - - - 0;
#X obj 276 376 ftom;
#X floatatom 276 405 5 0 0 0 - - - 0;
#X floatatom 333 318 5 0 0 0 - - - 0;
#X obj 333 376 ftom;
#X floatatom 333 405 5 0 0 0 - - - 0;
#X floatatom 390 318 5 0 0 0 - - - 0;
#X obj 390 376 ftom;
#X floatatom 390 405 5 0 0 0 - - - 0;
#X floatatom 447 318 5 0 0 0 - - - 0;
#X obj 447 376 ftom;
#X floatatom 447 405 5 0 0 0 - - - 0;
#X floatatom 504 318 5 0 0 0 - - - 0;
#X obj 504 376 ftom;
#X floatatom 504 405 5 0 0 0 - - - 0;
#X floatatom 561 318 5 0 0 0 - - - 0;
#X obj 561 376 ftom;
#X floatatom 561 405 5 0 0 0 - - - 0;
#X obj 561 204 * 2;
#X obj 561 232 / 3;
#X obj 504 203 * 2;
#X obj 504 232 / 3;
#X obj 447 203 * 2;
#X obj 447 232 / 3;
#X obj 390 203 * 2;
#X obj 390 232 / 3;
#X obj 333 203 * 2;
#X obj 333 232 / 3;
#X obj 276 203 * 2;
#X obj 276 232 / 3;
#X obj 504 289 * 2;
#X obj 390 289 * 4;
#X obj 333 289 * 8;
#X obj 675 289 / 2;
#X obj 732 289 / 2;
#X obj 789 289 / 4;
#X obj 903 289 / 8;
#X obj 618 483 /;
#X floatatom 618 512 8 0 0 0 - - - 0;
#X obj 618 56 t b b;
#X obj 618 27 bng 19 250 50 0 empty empty empty 0 -10 0 12 #fcfcfc #000000 #000000;
#X text 689 512 Pythagorean comma;
#X obj 278 778 output~;
#X obj 278 625 t f b, f 6;
#X obj 278 693 rds~;
#X obj 618 178 bng 19 250 50 0 empty pc7 empty 0 -10 0 12 #fcfcfc #000000 #000000;
#X obj 675 178 bng 19 250 50 0 empty pc8 empty 0 -10 0 12 #fcfcfc #000000 #000000;
#X obj 732 178 bng 19 250 50 0 empty pc9 empty 0 -10 0 12 #fcfcfc #000000 #000000;
#X obj 789 178 bng 19 250 50 0 empty pc10 empty 0 -10 0 12 #fcfcfc #000000 #000000;
#X obj 846 178 bng 19 250 50 0 empty pc11 empty 0 -10 0 12 #fcfcfc #000000 #000000;
#X obj 903 178 bng 19 250 50 0 empty pc12 empty 0 -10 0 12 #fcfcfc #000000 #000000;
#X obj 960 178 bng 19 250 50 0 empty pc13 empty 0 -10 0 12 #fcfcfc #000000 #000000;
#X obj 276 178 bng 19 250 50 0 empty pc1 empty 0 -10 0 12 #fcfcfc #000000 #000000;
#X obj 333 178 bng 19 250 50 0 empty pc2 empty 0 -10 0 12 #fcfcfc #000000 #000000;
#X obj 390 178 bng 19 250 50 0 empty pc3 empty 0 -10 0 12 #fcfcfc #000000 #000000;
#X obj 447 178 bng 19 250 50 0 empty pc4 empty 0 -10 0 12 #fcfcfc #000000 #000000;
#X obj 504 178 bng 19 250 50 0 empty pc5 empty 0 -10 0 12 #fcfcfc #000000 #000000;
#X obj 561 178 bng 19 250 50 0 empty pc6 empty 0 -10 0 12 #fcfcfc #000000 #000000;
#X msg 474 722 60;
#X obj 474 756 mtof;
#X msg 474 783 set \$1;
#X msg 524 722 69;
#X obj 278 595 r p;
#X obj 343 346 s p;
#X obj 400 346 s p;
#X obj 457 346 s p;
#X obj 515 346 s p;
#X obj 572 346 s p;
#X obj 629 346 s p;
#X obj 686 346 s p;
#X obj 745 346 s p;
#X obj 802 346 s p;
#X obj 859 346 s p;
#X obj 916 346 s p;
#X floatatom 276 261 5 0 0 0 - - - 0;
#X floatatom 333 261 5 0 0 0 - - - 0;
#X floatatom 390 261 5 0 0 0 - - - 0;
#X floatatom 447 261 5 0 0 0 - - - 0;
#X floatatom 504 261 5 0 0 0 - - - 0;
#X floatatom 561 261 5 0 0 0 - - - 0;
#X floatatom 675 261 5 0 0 0 - - - 0;
#X floatatom 732 261 5 0 0 0 - - - 0;
#X floatatom 789 261 5 0 0 0 - - - 0;
#X floatatom 846 261 5 0 0 0 - - - 0;
#X floatatom 903 261 5 0 0 0 - - - 0;
#X floatatom 960 261 5 0 0 0 - - - 0;
#X obj 474 814 s bp;
#X obj 667 56 r bp;
#X obj 276 433 midi-number;
#X obj 333 433 midi-number;
#X obj 390 433 midi-number;
#X obj 447 433 midi-number;
#X obj 504 433 midi-number;
#X obj 561 433 midi-number;
#X obj 618 433 midi-number;
#X obj 675 433 midi-number;
#X obj 732 433 midi-number;
#X obj 789 433 midi-number;
#X obj 846 433 midi-number;
#X obj 903 433 midi-number;
#X obj 960 433 midi-number;
#X obj 846 289 / 4;
#X obj 960 289 / 8;
#X obj 276 289 * 16;
#X obj 447 289 * 4;
#X obj 561 289 * 2;
#X obj 474 683 qlist;
#X obj 474 594 bng 19 250 50 0 empty empty empty 0 -10 0 12 #fcfcfc #000000 #000000;
#X obj 286 346 s pcp1;
#X obj 970 346 s pcp2;
#X obj 368 625 t f b, f 6;
#X obj 368 693 rds~;
#X obj 368 595 r p;
#X obj 403 595 r pcp2;
#X obj 313 595 r pcp1;
#X msg 317 657 100;
#X msg 407 657 100;
#X obj 1007 260 r oct;
#X msg 503 594 read circle-of-fifths.txt;
#X msg 503 652 read chromatic-scale.txt;
#X msg 503 623 read major-scale.txt;
#X obj 710 595 bng 19 250 50 0 empty empty empty 0 -10 0 12 #fcfcfc #000000 #000000;
#X msg 710 624 \; pc1 bang \; pc13 bang \;;
#X connect 0 0 1 0;
#X connect 0 0 4 0;
#X connect 0 0 52 0;
#X connect 1 0 2 0;
#X connect 2 0 9 0;
#X connect 2 0 114 0;
#X connect 3 0 6 0;
#X connect 3 0 103 0;
#X connect 4 0 5 0;
#X connect 4 0 102 0;
#X connect 5 0 7 0;
#X connect 6 0 8 0;
#X connect 7 0 128 0;
#X connect 8 0 129 0;
#X connect 9 0 10 0;
#X connect 10 0 14 0;
#X connect 10 0 115 0;
#X connect 11 0 12 0;
#X connect 11 0 104 0;
#X connect 12 0 13 0;
#X connect 13 0 130 0;
#X connect 14 0 15 0;
#X connect 15 0 19 0;
#X connect 15 0 116 0;
#X connect 16 0 17 0;
#X connect 16 0 105 0;
#X connect 17 0 18 0;
#X connect 18 0 131 0;
#X connect 19 0 20 0;
#X connect 20 0 24 0;
#X connect 20 0 117 0;
#X connect 21 0 22 0;
#X connect 21 0 106 0;
#X connect 22 0 23 0;
#X connect 23 0 132 0;
#X connect 24 0 25 0;
#X connect 25 0 29 0;
#X connect 25 0 118 0;
#X connect 26 0 27 0;
#X connect 26 0 107 0;
#X connect 27 0 28 0;
#X connect 28 0 133 0;
#X connect 29 0 30 0;
#X connect 30 0 119 0;
#X connect 31 0 32 0;
#X connect 31 0 71 0;
#X connect 31 0 143 0;
#X connect 32 0 33 0;
#X connect 33 0 134 0;
#X connect 34 0 35 0;
#X connect 34 0 71 1;
#X connect 34 0 142 0;
#X connect 35 0 36 0;
#X connect 36 0 122 0;
#X connect 37 0 38 0;
#X connect 37 0 97 0;
#X connect 38 0 39 0;
#X connect 39 0 123 0;
#X connect 40 0 41 0;
#X connect 40 0 98 0;
#X connect 41 0 42 0;
#X connect 42 0 124 0;
#X connect 43 0 44 0;
#X connect 43 0 99 0;
#X connect 44 0 45 0;
#X connect 45 0 125 0;
#X connect 46 0 47 0;
#X connect 46 0 100 0;
#X connect 47 0 48 0;
#X connect 48 0 126 0;
#X connect 49 0 50 0;
#X connect 49 0 101 0;
#X connect 50 0 51 0;
#X connect 51 0 127 0;
#X connect 52 0 53 0;
#X connect 53 0 54 0;
#X connect 53 0 113 0;
#X connect 54 0 55 0;
#X connect 55 0 56 0;
#X connect 55 0 112 0;
#X connect 56 0 57 0;
#X connect 57 0 58 0;
#X connect 57 0 111 0;
#X connect 58 0 59 0;
#X connect 59 0 60 0;
#X connect 59 0 110 0;
#X connect 60 0 61 0;
#X connect 61 0 62 0;
#X connect 61 0 109 0;
#X connect 62 0 63 0;
#X connect 63 0 108 0;
#X connect 64 0 46 0;
#X connect 65 0 40 0;
#X connect 66 0 37 0;
#X connect 67 0 3 0;
#X connect 68 0 11 0;
#X connect 69 0 16 0;
#X connect 70 0 26 0;
#X connect 71 0 72 0;
#X connect 73 0 0 0;
#X connect 73 1 0 0;
#X connect 74 0 73 0;
#X connect 77 0 78 0;
#X connect 77 1 149 0;
#X connect 78 0 76 0;
#X connect 79 0 4 0;
#X connect 80 0 1 0;
#X connect 81 0 9 0;
#X connect 82 0 14 0;
#X connect 83 0 19 0;
#X connect 84 0 24 0;
#X connect 85 0 29 0;
#X connect 86 0 62 0;
#X connect 87 0 60 0;
#X connect 88 0 58 0;
#X connect 89 0 56 0;
#X connect 90 0 54 0;
#X connect 91 0 52 0;
#X connect 92 0 93 0;
#X connect 93 0 94 0;
#X connect 94 0 120 0;
#X connect 95 0 93 0;
#X connect 96 0 77 0;
#X connect 108 0 137 0;
#X connect 109 0 66 0;
#X connect 110 0 65 0;
#X connect 111 0 138 0;
#X connect 112 0 64 0;
#X connect 113 0 139 0;
#X connect 114 0 67 0;
#X connect 115 0 68 0;
#X connect 116 0 69 0;
#X connect 117 0 135 0;
#X connect 118 0 70 0;
#X connect 119 0 136 0;
#X connect 121 0 0 0;
#X connect 135 0 21 0;
#X connect 136 0 31 0;
#X connect 137 0 34 0;
#X connect 138 0 43 0;
#X connect 139 0 49 0;
#X connect 141 0 140 0;
#X connect 144 0 145 0;
#X connect 144 1 150 0;
#X connect 145 0 76 1;
#X connect 146 0 144 0;
#X connect 147 0 144 0;
#X connect 148 0 77 0;
#X connect 149 0 78 1;
#X connect 150 0 145 1;
#X connect 151 0 136 1;
#X connect 152 0 140 0;
#X connect 153 0 140 0;
#X connect 154 0 140 0;
#X connect 155 0 156 0;
