#N canvas 895 116 983 773 12;
#X floatatom 100 82 5 0 0 0 - - - 0;
#X obj 100 110 select 32;
#X obj 100 53 key;
#X obj 100 521 output~;
#X msg 40 194 220;
#X msg 100 194 220;
#X obj 100 223 * 1;
#X floatatom 100 281 5 0 0 0 - - - 0;
#X obj 100 358 t f b, f 6;
#X obj 100 436 rds~;
#X msg 139 400 100;
#X obj 100 252 / 1;
#X connect 0 0 1 0;
#X connect 1 0 5 0;
#X connect 2 0 0 0;
#X connect 5 0 6 0;
#X connect 6 0 11 0;
#X connect 7 0 8 0;
#X connect 8 0 9 0;
#X connect 8 1 10 0;
#X connect 9 0 3 1;
#X connect 9 0 3 0;
#X connect 10 0 9 1;
#X connect 11 0 7 0;
