#N canvas 0 130 983 622 12;
#X msg 372 234 220;
#X floatatom 372 321 6 0 0 0 - - - 0;
#X floatatom 296 92 5 0 0 0 - - - 0;
#X obj 296 120 select 32;
#X obj 296 63 key;
#X obj 240 671 output~;
#X obj 372 508 t f b, f 6;
#X obj 372 586 rds~;
#X msg 411 550 100;
#X msg 150 234 220;
#X obj 150 263 * 1;
#X floatatom 150 321 6 0 0 0 - - - 0;
#X obj 150 508 t f b, f 6;
#X obj 150 586 rds~;
#X msg 189 550 100;
#X msg 448 234 247.5;
#X floatatom 448 321 7 0 0 0 - - - 0;
#X obj 448 508 t f b, f 6;
#X obj 448 586 rds~;
#X msg 487 550 100;
#X obj 150 292 / 1;
#X obj 372 263 * 3;
#X obj 372 292 / 2;
#X msg 296 234 220;
#X floatatom 296 321 8 0 0 0 - - - 0;
#X obj 296 508 t f b, f 6;
#X obj 296 586 rds~;
#X msg 335 550 100;
#X obj 296 263 * 4;
#X obj 296 292 / 3;
#X msg 226 234 330;
#X floatatom 226 321 6 0 0 0 - - - 0;
#X obj 226 508 t f b, f 6;
#X obj 226 586 rds~;
#X msg 265 550 100;
#X obj 226 263 * 3;
#X obj 226 292 / 4;
#X msg 372 348 set \$1;
#X msg 528 234 220;
#X floatatom 528 321 5 0 0 0 - - - 0;
#X obj 528 508 t f b, f 6;
#X obj 528 586 rds~;
#X msg 567 550 100;
#X obj 528 263 * 2;
#X obj 528 292 / 1;
#X msg 226 348 set \$1;
#X obj 448 263 * 3;
#X obj 448 292 / 2;
#X connect 0 0 21 0;
#X connect 1 0 6 0;
#X connect 1 0 37 0;
#X connect 2 0 3 0;
#X connect 3 0 9 0;
#X connect 3 0 0 0;
#X connect 3 0 23 0;
#X connect 3 0 38 0;
#X connect 4 0 2 0;
#X connect 6 0 7 0;
#X connect 6 1 8 0;
#X connect 7 0 5 0;
#X connect 7 0 5 1;
#X connect 8 0 7 1;
#X connect 9 0 10 0;
#X connect 10 0 20 0;
#X connect 11 0 12 0;
#X connect 12 0 13 0;
#X connect 12 1 14 0;
#X connect 13 0 5 1;
#X connect 13 0 5 0;
#X connect 14 0 13 1;
#X connect 15 0 46 0;
#X connect 16 0 17 0;
#X connect 17 0 18 0;
#X connect 17 1 19 0;
#X connect 18 0 5 0;
#X connect 18 0 5 1;
#X connect 19 0 18 1;
#X connect 20 0 11 0;
#X connect 21 0 22 0;
#X connect 22 0 1 0;
#X connect 23 0 28 0;
#X connect 24 0 25 0;
#X connect 25 0 26 0;
#X connect 25 1 27 0;
#X connect 26 0 5 0;
#X connect 26 0 5 1;
#X connect 27 0 26 1;
#X connect 28 0 29 0;
#X connect 29 0 24 0;
#X connect 30 0 35 0;
#X connect 31 0 32 0;
#X connect 31 0 45 0;
#X connect 32 0 33 0;
#X connect 32 1 34 0;
#X connect 33 0 5 0;
#X connect 33 0 5 1;
#X connect 34 0 33 1;
#X connect 35 0 36 0;
#X connect 36 0 31 0;
#X connect 37 0 30 0;
#X connect 38 0 43 0;
#X connect 39 0 40 0;
#X connect 40 0 41 0;
#X connect 40 1 42 0;
#X connect 41 0 5 0;
#X connect 41 0 5 1;
#X connect 42 0 41 1;
#X connect 43 0 44 0;
#X connect 44 0 39 0;
#X connect 45 0 15 0;
#X connect 46 0 47 0;
#X connect 47 0 16 0;
