#N canvas 1241 234 918 862 12;
#X obj 69 506 /~ 2;
#X obj 69 554 outlet~;
#X obj 60 282 justIntonation;
#X obj 31 34 inlet;
#X obj 31 104 unpack 0 0;
#X obj 31 165 intonation-router;
#X obj 32 310 pythagoreanIntonation;
#X floatatom 199 457 5 0 0 0 - - - 0;
#X floatatom 262 458 5 0 0 0 - - - 0;
#X floatatom 199 610 5 0 0 0 - - - 0;
#X obj 198 665 outlet;
#X floatatom 379 459 5 0 0 0 - - - 0;
#X obj 89 253 naturalChromatic;
#X floatatom 322 458 5 0 0 0 - - - 0;
#X obj 118 226 equalTET;
#X obj 147 196 equalTET.PB;
#X floatatom 432 459 5 0 0 0 - - - 0;
#X floatatom 162 134 5 0 0 0 - - - 0;
#X floatatom 55 139 5 0 0 0 - - - 0;
#X floatatom 25 427 5 0 0 0 - - - 0;
#X obj 69 456 rds~;
#X connect 0 0 1 0;
#X connect 2 0 8 0;
#X connect 2 0 20 0;
#X connect 3 0 4 0;
#X connect 4 0 5 0;
#X connect 4 0 18 0;
#X connect 4 1 17 0;
#X connect 4 1 20 1;
#X connect 5 0 6 0;
#X connect 5 1 2 0;
#X connect 5 2 12 0;
#X connect 5 3 14 0;
#X connect 5 4 15 0;
#X connect 6 0 7 0;
#X connect 6 0 19 0;
#X connect 6 0 20 0;
#X connect 7 0 9 0;
#X connect 8 0 9 0;
#X connect 9 0 10 0;
#X connect 11 0 9 0;
#X connect 12 0 13 0;
#X connect 12 0 20 0;
#X connect 13 0 9 0;
#X connect 14 0 11 0;
#X connect 14 0 20 0;
#X connect 15 0 16 0;
#X connect 15 0 20 0;
#X connect 16 0 9 0;
#X connect 19 0 20 0;
#X connect 20 0 0 0;
