#N canvas 1250 472 1277 895 12;
#X obj 30 68 unpack 0 0;
#X obj 31 26 inlet;
#X obj 31 278 /~ 2;
#X obj 31 326 outlet~;
#X obj 29 178 equalTET.PB;
#X obj 30 228 rds~;
#X connect 0 0 4 0;
#X connect 0 1 5 1;
#X connect 1 0 0 0;
#X connect 2 0 3 0;
#X connect 4 0 5 0;
#X connect 5 0 2 0;
