#N canvas 262 50 590 393 10;
#X obj 144 150 route 0 1;
#X obj 225 100 tgl 15 0 empty empty A/B 17 7 0 10 -262144 -1 -1 0 1
;
#X obj 144 200 print A;
#X obj 204 200 print B;
#X floatatom 144 50 5 0 0 1 value - -;
#X obj 144 130 list prepend 0;
#X connect 0 0 2 0;
#X connect 0 1 3 0;
#X connect 1 0 5 1;
#X connect 4 0 5 0;
#X connect 5 0 0 0;
