#N canvas 1745 664 509 660 12;
#X floatatom 124 154 5 0 0 0 - - -;
#X obj 92 267 % 12;
#X floatatom 87 369 5 0 0 0 - - -;
#X obj 18 234 / 12;
#X text 41 340 PC;
#X floatatom 20 314 5 0 0 0 - - -;
#X obj 17 270 i;
#X text 75 312 Octave;
#X obj 90 497 pack 0 0;
#X obj 96 574 outlet;
#X obj 37 23 inlet;
#X connect 0 0 1 0;
#X connect 0 0 3 0;
#X connect 1 0 2 0;
#X connect 2 0 8 1;
#X connect 3 0 6 0;
#X connect 5 0 8 0;
#X connect 6 0 5 0;
#X connect 8 0 9 0;
#X connect 10 0 0 0;
