#N canvas 252 472 787 669 12;
#X obj 248 575 outlet~;
#X obj 243 244 inlet;
#X obj 235 402 piano~ 1496 1;
#X obj 353 397 piano~ 420 2;
#X obj 353 480 /~ 2;
#X obj 241 484 /~ 2;
#X connect 1 0 2 0;
#X connect 1 0 3 0;
#X connect 2 0 5 0;
#X connect 3 0 4 0;
#X connect 4 0 0 0;
#X connect 5 0 0 0;
