#N canvas 930 319 289 182 12;
#X msg 29 37 220;
#X obj 79 76 * 1;
#X obj 79 105 / 1;
#X floatatom 79 134 5 0 0 0 - - - 0;
#X text 93 36 <== push message object;
#X obj 129 105 / 1;
#X floatatom 129 134 5 0 0 0 - - - 0;
#X obj 129 76 * 2;
#X floatatom 29 134 5 0 0 0 - - - 0;
#X obj 29 76 * 1;
#X obj 29 105 / 2;
#X connect 0 0 1 0;
#X connect 0 0 7 0;
#X connect 0 0 9 0;
#X connect 1 0 2 0;
#X connect 2 0 3 0;
#X connect 5 0 6 0;
#X connect 7 0 5 0;
#X connect 9 0 10 0;
#X connect 10 0 8 0;
