#N canvas 1019 259 289 182 12;
#X msg 29 37 220;
#X floatatom 79 134 5 0 0 0 - - - 0;
#X obj 129 105 / 1;
#X floatatom 129 134 5 0 0 0 - - - 0;
#X obj 129 76 * 2;
#X floatatom 29 134 5 0 0 0 - - - 0;
#X obj 29 76 * 1;
#X obj 29 105 / 1;
#X obj 79 76 * 3;
#X obj 79 105 / 2;
#X text 93 36 <== push;
#X connect 0 0 4 0;
#X connect 0 0 6 0;
#X connect 0 0 8 0;
#X connect 2 0 3 0;
#X connect 4 0 2 0;
#X connect 6 0 7 0;
#X connect 7 0 5 0;
#X connect 8 0 9 0;
#X connect 9 0 1 0;
