#N canvas 1081 383 372 206 12;
#X msg 29 37 220;
#X floatatom 130 144 8 0 0 0 - - - 0;
#X floatatom 198 144 5 0 0 0 - - - 0;
#X floatatom 29 144 5 0 0 0 - - - 0;
#X obj 29 86 * 1;
#X obj 29 115 / 1;
#X text 93 36 <== push;
#X obj 306 115 / 1;
#X floatatom 306 144 5 0 0 0 - - - 0;
#X obj 306 86 * 2;
#X obj 198 86 * 3;
#X obj 198 115 / 2;
#X obj 130 86 * 4;
#X obj 130 115 / 3;
#X floatatom 76 144 6 0 0 0 - - - 0;
#X obj 76 86 * 3;
#X obj 76 115 / 4;
#X text 37 168 A3;
#X text 83 168 B3;
#X text 137 168 D4;
#X text 205 168 E4;
#X text 314 168 A4;
#X obj 245 86 * 3;
#X obj 245 115 / 2;
#X floatatom 245 144 7 0 0 0 - - - 0;
#X text 252 168 F#4;
#X connect 0 0 4 0;
#X connect 0 0 10 0;
#X connect 0 0 12 0;
#X connect 0 0 9 0;
#X connect 2 0 15 0;
#X connect 4 0 5 0;
#X connect 5 0 3 0;
#X connect 7 0 8 0;
#X connect 9 0 7 0;
#X connect 10 0 11 0;
#X connect 11 0 2 0;
#X connect 12 0 13 0;
#X connect 13 0 1 0;
#X connect 14 0 22 0;
#X connect 15 0 16 0;
#X connect 16 0 14 0;
#X connect 22 0 23 0;
#X connect 23 0 24 0;
