#N canvas 1081 383 763 337 12;
#X msg 29 37 220;
#X floatatom 123 144 8 0 0 0 - - - 0;
#X floatatom 191 144 5 0 0 0 - - - 0;
#X floatatom 29 144 5 0 0 0 - - - 0;
#X obj 29 86 * 1;
#X obj 29 115 / 1;
#X text 93 36 <== push;
#X obj 238 115 / 1;
#X floatatom 238 144 5 0 0 0 - - - 0;
#X obj 238 86 * 2;
#X obj 191 86 * 3;
#X obj 191 115 / 2;
#X obj 123 86 * 4;
#X obj 123 115 / 3;
#X floatatom 76 144 5 0 0 0 - - - 0;
#X obj 76 86 * 3;
#X obj 76 115 / 4;
#X connect 0 0 4 0;
#X connect 0 0 10 0;
#X connect 0 0 12 0;
#X connect 0 0 9 0;
#X connect 2 0 15 0;
#X connect 4 0 5 0;
#X connect 5 0 3 0;
#X connect 7 0 8 0;
#X connect 9 0 7 0;
#X connect 10 0 11 0;
#X connect 11 0 2 0;
#X connect 12 0 13 0;
#X connect 13 0 1 0;
#X connect 15 0 16 0;
#X connect 16 0 14 0;
