#N canvas 1016 103 792 768 12;
#X msg 117 211 close;
#X floatatom 465 196 5 0 0 0 - - - 0;
#X msg 465 152 0;
#X msg 498 152 1;
#X msg 531 152 2;
#X msg 564 152 3;
#X obj 47 269 bng 15 250 50 0 empty empty empty 17 7 0 10 #fcfcfc #000000
#000000;
#X floatatom 47 323 5 0 0 0 - - - 0;
#X msg 597 152 4;
#X msg 47 437 0;
#X floatatom 47 380 5 0 0 0 - - - 0;
#X obj 47 408 until;
#X obj 465 259 route float symbol, f 28;
#X floatatom 465 288 5 0 0 0 - - - 0;
#X obj 561 332 s2l /;
#X obj 561 365 unpack f f;
#X text 611 332 (from zexy library);
#X obj 47 240 delay 10;
#X floatatom 47 549 5 0 0 0 - - - 0;
#X obj 47 495 bng 15 250 50 0 empty empty empty 17 7 0 10 #fcfcfc #000000
#000000;
#X obj 47 152 openpanel;
#X obj 47 127 bng 15 250 50 0 empty empty empty 17 7 0 10 #fcfcfc #000000
#000000;
#X msg 47 182 read -c \$1;
#X obj 47 211 t b;
#X text 44 37 Pelog Gamelan;
#X obj 47 351 - 5;
#X obj 117 240 text define -k pelog;
#A set 152 \; 326 \; 692 \; 825 \; 2/1 \;;
#X obj 47 294 text size pelog;
#X obj 47 466 text delete pelog;
#X obj 47 520 text size pelog;
#X floatatom 561 400 5 0 0 0 - - - 0;
#X floatatom 628 400 5 0 0 0 - - - 0;
#X obj 465 230 text get pelog;
#X text 44 53 ============================================================
;
#X text 45 88 1 Opening and processing Scala file;
#X text 366 89 2 Reading processed Scala file;
#X floatatom 465 316 5 0 0 0 - - - 0;
#X obj 488 456 pow;
#X msg 488 427 2;
#X obj 368 552 *;
#X floatatom 368 580 8 0 0 0 - - - 0;
#X obj 465 399 t b b f;
#X floatatom 488 484 8 0 0 0 - - - 0;
#X floatatom 483 343 5 0 0 0 - - - 0;
#X obj 465 370 /;
#X floatatom 368 156 5 0 0 0 - - - 0;
#X msg 368 127 555;
#X obj 561 428 /;
#X floatatom 561 456 5 0 0 0 - - - 0;
#X obj 561 482 t b f;
#X msg 432 152 0;
#X obj 432 127 bng 15 250 50 0 empty empty empty 17 7 0 10 #fcfcfc
#000000 #000000;
#X obj 465 127 bng 15 250 50 0 empty empty empty 17 7 0 10 #fcfcfc
#000000 #000000;
#X obj 498 127 bng 15 250 50 0 empty empty empty 17 7 0 10 #fcfcfc
#000000 #000000;
#X obj 531 127 bng 15 250 50 0 empty empty empty 17 7 0 10 #fcfcfc
#000000 #000000;
#X obj 564 127 bng 15 250 50 0 empty empty empty 17 7 0 10 #fcfcfc
#000000 #000000;
#X obj 597 127 bng 15 250 50 0 empty empty empty 17 7 0 10 #fcfcfc
#000000 #000000;
#X obj 368 610 osc~;
#X obj 368 639 output~;
#X connect 0 0 26 0;
#X connect 1 0 32 0;
#X connect 2 0 1 0;
#X connect 3 0 1 0;
#X connect 4 0 1 0;
#X connect 5 0 1 0;
#X connect 6 0 27 0;
#X connect 7 0 25 0;
#X connect 8 0 1 0;
#X connect 9 0 28 0;
#X connect 10 0 11 0;
#X connect 11 0 9 0;
#X connect 12 0 13 0;
#X connect 12 1 14 0;
#X connect 13 0 36 0;
#X connect 14 0 15 0;
#X connect 15 0 30 0;
#X connect 15 1 31 0;
#X connect 17 0 6 0;
#X connect 19 0 29 0;
#X connect 20 0 22 0;
#X connect 21 0 20 0;
#X connect 22 0 23 0;
#X connect 22 0 26 0;
#X connect 23 0 17 0;
#X connect 25 0 10 0;
#X connect 27 0 7 0;
#X connect 29 0 18 0;
#X connect 30 0 47 0;
#X connect 31 0 47 1;
#X connect 32 0 12 0;
#X connect 36 0 44 0;
#X connect 37 0 42 0;
#X connect 38 0 37 0;
#X connect 39 0 40 0;
#X connect 40 0 57 0;
#X connect 41 0 39 0;
#X connect 41 1 38 0;
#X connect 41 2 37 1;
#X connect 42 0 39 1;
#X connect 43 0 44 1;
#X connect 44 0 41 0;
#X connect 45 0 39 0;
#X connect 46 0 45 0;
#X connect 47 0 48 0;
#X connect 48 0 49 0;
#X connect 49 0 39 0;
#X connect 49 1 39 1;
#X connect 50 0 36 0;
#X connect 51 0 50 0;
#X connect 52 0 2 0;
#X connect 53 0 3 0;
#X connect 54 0 4 0;
#X connect 55 0 5 0;
#X connect 56 0 8 0;
#X connect 57 0 58 0;
#X connect 57 0 58 1;
